<mxfile host="app.diagrams.net" modified="2023-08-20T09:46:34.491Z" agent="Mozilla/5.0 (Windows NT 10.0; Win64; x64) AppleWebKit/537.36 (KHTML, like Gecko) Chrome/115.0.0.0 Safari/537.36 Edg/115.0.1901.203" etag="GhHNV-x0Ei62T9F1XjAT" version="21.6.8" type="github">
  <diagram name="第 1 页" id="yvfruhPriAgJsDNH4ddE">
    <mxGraphModel dx="1056" dy="640" grid="1" gridSize="10" guides="1" tooltips="1" connect="1" arrows="1" fold="1" page="1" pageScale="1" pageWidth="827" pageHeight="1169" math="0" shadow="0">
      <root>
        <mxCell id="0" />
        <mxCell id="1" parent="0" />
        <mxCell id="fTQjIBvMFG_AR24mNK1f-1" value="" style="shape=image;verticalLabelPosition=bottom;labelBackgroundColor=default;verticalAlign=top;aspect=fixed;imageAspect=0;image=data:image/png,iVBORw0KGgoAAAANSUhEUgAABGIAAABNCAYAAADthsJvAAAgAElEQVR4AexdB3gcxfUXhPwJoYYUUoAQICEQQigGQsf0XkwHAwktGNxtMMYFN9x7x8a9YBs3WbblXmRZXbo76U536rKtcjpJlm3ZKrbh9//e7L3b2b3d1Z0sV07f9743Ozvz5s2b2b15P72ZjULkL2KBiAUiFohYIGKBiAUiFohYIGKBiAUiFohYIGKBiAUiFohY4IRYIOqEtBJpJGKBiAUiFohYIGKBiAUiFohYIGKBiAUiFohYIGKBiAUiFohYABogpu9QN74YmI7u/bag68BV6DpoJboNXoZuQ1ai+9A16Do0Fl2GrUGn4Sp1HLEG7UdKNDoW7UfHosOYdYI6jl2P9uNCJyqvp05j1sOMuGw4bYRbltuQuZk+lM/lwm0nnPLchsxPlE4dxsbj05Fp+GR4PLqM3YKuYzegx9hY9By7Dj3HbkLPMVvwxdht6DE+Dp+Pj0P3CRJN3IbuAdqC7hOJNhkQ32Mu19OnuYyRLPkep/X15Wsu01I6hSKH2pR10KdPH526TtoEps4Tt6H96ER8OCQO7UdtRscxa9F13Fr0mLgOPcdvQM/xW9BzHM2Tbdp5EmQL7n+oXG8/+TpUGVROrqdPhyOnJWXp9ZCvTxedlGfi84mbIGjyMvRdNAQD1ryNATEf4+vV3fH1qi/Rf0VP9P2+B/p+3w19l3VAn+/bo8/STwLUa9kniNBPywb9V3yAYSvfwcjl72D08o8xdnlXjF3+OcYs7YExSz8T16NWdsXgmK4YuEahQWu7wYj4foSrtjpTbDFodQcMWfUBhi9/C8OXvo+Ry9tj9IruGLuiJ0at+AKjVnbHqJWdMXJFJ4xc2QHDdTQ0uhOCaGUXDF3ZBUOiZeqGIdHd8PUqLQ1a1Q0BiumCQYI6YVBMJ5BuQUT5QcT1jLiJrCAZVM6oPueZyCEdw5Il6a/vX1hySK9wdOJ+GPFgnb6O6QA9DV71EQaufBcDV/4XX6/8BMOju2PEqp4YEd1L4as+w7DV3TB0TScMXmtEXTB4rUJfr+6Mr1d3tSC676c1HfG1TJyv4SHIkmVwWiPjNNaJ+yPzoL6F0b/VnTFYoqGruoJIjLl4J9B7oTtGL/88QGOXfYGxS3tj9vy+mNfpHcQ81wbft2mDhW+9gblt38Csd97AnLffwIK338Sit97E0tffwIpX30D0K3569TVER+iMs8GKV18D0fLXXxG09PVXEKA3X8WGTz/C/rkzQoKZNEAMgTBjpxdj9rIyzFyZj+nLXJgRnYXp0S5MX5mHadEKTV2VgykxCk2KyQHRxNUKjY/xgGncKjeIxsaETlyH+YRoN/Q0caU2j8uG0044ZVk+c70+dH2q68S6Ew+n70FlV+Wg94x0fDHViXErSjFlzS5Mjy3EtGi3f57kYPqKAkxbWYBvVhViakwhJq/WUz4mr87H5DW5EnkweQ2TnO9PU3kNsUy9LJbBXCdLI4Nlkiy9HKrHMojr5NA11wlwSQ7lBeqEK4d0kWQF5JyKOsl9U9KT1npANGqlBx8P3YzBCwsxNroIk9bkYuqabHyz2onpMdmYvioX01fl45uYfN084XGRuMYGBmPB9wNjIdWV87hcKFyuZ5QORQaVMaor54UqpyVlye0bpUPVyaiuPi9IljJPpq72QFBsGsbGTsXYrR0wNaEPZqWOxpy0KZiTOl0hSqdPwOy08ZidNjZAM9PHIkI/LRt8mzgII6M/xLSNnfFdwteIzpiC5amTsSSBaCKWJI7FgqTRmJU8Ct+mjML05JGmNC1pBCJ0ZtpgetIwjFnbAePXfoiZ23piccooLM2YgvkJ4zB/5wTMTxiD+YkjBM1LGIo5iRIlDMfsRJlGYnaiSjOTRmJm4uggmpE0GnqanuzPSx6JGYKGY0Yy01DMSCbia+ZcVuIsOyCH7nF5Mzl0X5LB6SBZejknWCfWhzjrGNS3ltRpKGYmqTRlRy8MifkfJm7pjjnJQ7DYPgUL0yZjTsIkzEmcgDlJYzAnaRRmJY/AzJRhOqI8mUZJffDbnvsX1Deyexhjx3KOi514DhwPnWTZnA5nXjZTp4C95WdFaV88w/QcJ43E7ITRmOOneTtHg2hBPNFYQQvjxmNh3ESs3TAZc7u8h8T/tYPzq35wDBuMjFFDkDRsoKDUIQORMXgg7AP7I6t/f7j6SdT/K7gidEbZIGvAV2DKHNgHRPZBCsV/0RXr23+EmnnNAGI+G7BVgDBbbUcRl12HrVk1iPPsRZz7ALa767Dd3SD4Vs9BEG3JCaatuYcg07a8eoRK2/PqIdOO3HroaWdOPZjke1wv1LZCLcdymcttcpr1Ic55xLlOqG2FWo7lMpfb5PTx06kRk6NzMWimHd/H78POAmCL6wB2uPYjIXsfElwHkeBsQLyrAfHuRkFxnkYEUz3iPPWIyznkp1rE5TBxnp9TuSBimXo5VMdEDrVlKofk6WWFI4fqtrROUr+D7KSzkWHfmqkT20HDdX2je0E61WJbrkJb82oRY68R0XNToosQ62zAJk8ttrj2IT6nBjs9+7HTfQg73fUm80Tqu6Ytg34H9DAaX52cUGVp+m4gI1Q5puOikyn3wSzdUjqFIifU/oUiy7A//GzVIi6vAvN3LMb0uL5Y4ZyGTUXR2Fy0DjtK4rCjJB47SrdgR+kG7CjdhLiSzRH6CdlgW8lmyLQ2ZzHGruyGJUkjsTVvMZJL1yNpzybEF25GfNF6xBfHYkdxLLbv2YCtezZpaPvuTdDTtl0bEaEzxwZbdm8E0bbd6/HtliGYtulLrLRPRVxxNBLKNiJu9yY/bUDcnrWI270O23etF+WpjqBdigyWZcw3Y8vu0Gjbrs1QyG9nbmd3rLZdzg+ak1yfuV4O6W0gK0gO1WMZxKVx57aN5NA9uaxIy3IkWQE5p6JOZCOFtu+KBVOMc66IgliQNBIbC77HztINSNizBTt3bcfO3ZsRv2cj4kvWC4orWQ+VNiKuREv698v23VugJf87aM8G8Y7avmedn/O1nxu8qwzlULmwZR1nnQL6UF8M+tdk30i/FraTRietrZV3wgbE71IpoXgDtLQJzpxNWNy3C1I+64mqefNQv2Et9q5diar1KwTVxK7AgbUrsH/NctTGrNTS6uWojdAZaQMa7/1rlmoo55sxWNPxI+yd3wwghrYjUSRMvLse9j0NcJQeQpb3EBzeejjKj8BR/oPgdm8j9OTwNiKr4rCGXBVHIZPbexRNUY73KPSUW34UZsRlm5J7LPe5DZmb6UP5XO5Y2myqLrch8+OpE4+j0/cj5q/zYNSsVKxO8sFZDrhKDsNTWo/8kgbklxxG/p4fkVfyI3LLgJxyM/oROeV+Coz54YDt5H4FynH5IJnNlUP1ZP30cmgsDXQK6OEvL65lOZTWyzKQQ/3mchouy9LLORk6yfoY9Y11Ogx3hUIu32Ek5h/C5yNXYvbaXMTn1cFWWo/MsjrkVNQht/yw8kyXmc0T2bZGNlCfs8Bc0djQoD7fD8w3AxmmY2Iir6VktZQc6mNLyWopOYY60fOgkNtXiyVxSzFr0xBszlkJe0UabOUOOCs9cFXlwVXthqs6C86qbDgrc+HyReinYAMaaz0lFMVh3LL+iE6fgeSSzXD40pFZmYVMn0vhVTY4qzIDc0XMF5pDfsquzAPTT8GGP7U+BuZLVTYWbJ2O2VtHYlPOSqT7EpFRZYO9OluhvZmw77XDvtcJW5U7QBlVbmRU5YRAecioyoOtUksOXx70lFmRB0G+HGQKciPTR+Tyc75mzuX8nOszD5JjJksnh+qxDOIBOVSO2z6TdaK+KeT0ucC0PWcDJi4bgDUZ85C2Jw6Z3gxxL7sqB9lVbmRXZylU5fL/FtHvkRuuqpwgCsw/fnf58uGUifMrPeL3TflN86c5T/Dgd5+xHCoXpixZH0q3uE5Sf8RvtnQdSt9OhE6klwG5KrOhkBOuSj9VZcJVlYniMjsWD+qNhD5foWrFMvyQloCG9Dg0OHYKOmLbiR/Td+JIejwOZ8TjcHpChM5kG9AYaygOhzMUKl48E9GdP0blglnhb02iM2FoO9I21z44SusFCOOqrIXLVwdyrJy+o3ASr2zQkMvXAJmyvXWQyV1eh1Aoh5w0ifLK6qCn/NI6MMn3uF4o7YRThuUyl9vkNOtDnPOIc51w2gulLMtlLrfJ6eOhkzKmDVgQm4VRsxKxemeJAOzIocr11qGgjKgBBaVHBRWV/YCCchPyHkFBgBpR4CWq93O+Zi6XPRIss7lyqJ6sX5AcM510+ujlkMwgWSH2TS8rSM5J0Em2kWHfWCfqYz3yKhRKzT+AnqOWYfbabBFZZy8/CLevDnm+2sBYF5XrxoDbCvRbtjXPBzMul7VKm9XnfKu6+ntcx4zry5tdm9XnfLN6Rvlcx4wb1THKM6vP+UZ1zPK4TiPyKojUeZLn24/FW5ZgRuxQbHWvEoseWgS7qgrgqiyCsiB2iQWS25cNM/JUZCNCp78NjMaXF8iJhdswYWl/xKTPRUpJHGzlNjgqsvxASw5c1TRPnMKB0svRzw2314UInRk2yK5wQSanLwsLNk/DvM2jsS1vNTKrlHmSWeVBZlUuMquykVmdicxqJxxVWVqqdMHRBKnABQMYbjgrginb60aAAjpmIbsiC9k+h8IprSFtXwL1WZZejqksnRyqxzKIB+RQuZ+ATmRvA9rhWYfJSwchNn0RMsuT4fRmwe11w+PNh8eb6/+9ccJdmaklnxNuHWltqrO3xuZh2vtEjl2o89JUJ2k+G8pqYl4eFztJOvFcr8gCvScYkGuKF5VkYeHAXtjepw9Kly5CY8oOHM5KxsHMnYIa7Ik4YtNRRjKOROiMtcHRjESopABxP2bswK4lc7Ciy8coWzAzfCCGDualM2Hi3PtUEKaqBq7K/X4whgCXOghwhgCaylrQfzNzKoIpr+IQ9FRQcQhNUZH3EGQqLj8EPe0u0+Zx+aZkN/c+y2eu14euT3WdWHfizbUDjWeurx7frbNj1KytiI4vFBEObu8B5Hj3oaC8BgXltSgqbRC0u7QRxWUmVF6PYkE8lrUoLmfiPOZcVuIsN0gO1TGTQ/ckGZRmOcQD97jdMOTIsoLkNFOngBzS+UTqpLORYd+MdGJ7KdxeUI2vxn+P2bGZSCyg90gtcitrkVdZg4KK/eI5FzaXx4DTmr7LbbEdzLiB7s2S1VJySM+WknUi5VBbZjaW88PXSXkX1aLIW4uCiloU+KqxbNtSzI4dgS1ZMcJByKsuhqtCIXdFPtw+j8h3VzhAlOMNptxyByJ0+tvAaGx53JPzN2PCkgFYnbIAqbt2wlZqR2ZZNpzeAjgrcpT/ZFcQuJCF3IrMAOV7M6GnyFw5/ecKjyHPGZ4n7gobFm78BnPWjUacOxbu6mwBlLh8+VDII4Bd4YhV2uCUycBZD3Lg/c4czTOZcrxZ0FNueZb0XrIht9xP3nTkEvF1gBuNC8mQ5VCZpuTQ/VBk6eSccJ24b3L/jo9OORXp0NPO7DWYvGgQ1uycL35Xcr0e5JTlIbesGLnl+aDrXG82civsyPVlaKnCjnyJwrI3jZ/pHDAau+NpJ7+9j4dOPE81PIx52Wyd5DZsyPHqSVlL8PMbANG8MqCaEwBYC0tdWDCoDzb17oXdS79DfXo8DmYmYl9mgqBaexLqbEloyEiSgIdUHMmQKD0dRyJ0RtjgaHoqfkxTCGnJQFoikLZT0K7v5mJp53bY893sZgAxQ1ZixqpsAcTQdiQBulTVwO3bD3dFg0q+OvGfbfrvNpHYauCtE1ERFBlBpPmPp/+/n0rEg/Jfc7N0UXk99GTlyHBZM3ktkc9tyPynphOPZ66vEQvX2zF89nYs31kMe3kDnBUHQWBMbsV+5JdTVMxhQcVlR2BMfnBG46A24dyxgx7gLFsvS5ZDaZ2jGKgvA0QkSy9H74jq5JBcrhPgkhzKC7Qt6xSKHNJFkhWQcyrqJPdNm84oqEHvCcswY50T8YX74aysg7uKwJj9gaiYovJGKHQEFB2j6XfArrItDewn20euY5SWyzaVNqov5zVVn+/LdYzSXC4UblRfzgtFBpWR6xilW0oOydbJYlCYAWEC5giImbluGDa7osV/qXJrCuGqKITTV6hsRarMFvnsEKkOl38xZQLOsIMW4cHA1alsE6PxpbykAgWIWZU6D6m7d8BWmoHMciec3jxlwexT/rtPZT0+FYiRQRlOn8r9j+gW/nyV50y2z4aFm6Zg9vqR2OZZA/depwDpaKuWu4KiHDwimkF5n9hA5WWSZRmm/QCMHnQxv+b+SM4ggwIGDmLw+DPAw3KI+2WZyqH7cnlO62Xp5JA8lh3gXFfmejl0TyeLrzVclkFplkOc7+nktKBObl86ZNrhXoOJi/ojJnEuCMDzVHjgLs+Bx1soImLo2uNzwuOzw1OZISgAyBA4I5GqP/dD7h/n+ftGNglr7I6nnY6jTpqx53bYFjLn/nEel22unVgOcUmWlOZnOxARVuHfsmYQ3UZAzMKv+2Jzrz7Y/f1iNKQloM6RjAOOJEGHCIRJTxHUaEtFgDLS0aghGxozInS624ABNQJkFErGj+kExiSieBEBMZ+idOHc5gAxqzEjOlccyEtnwtA2JAJjBAgjznfh8wfU/f28z18584HOfVAoz3sEMuVWHEFTJJentLq9Q02Ts8Yk3+e6TbUR7n2Wy1xuk9OsD3HOI851wm2zqfIsl7ncJqePl04e3w+Yuz4bX89NwOLEEqR5j8Lha0AWg3K0TUmc+/EjCsphQf4tS4FxVrcucB8CnLeraDjL1suhMWBZ2vEQ8jQyqC7LIa6XFY4cWZZeTnN18sshvYLsFErfmqkT20HD2U5WOrG9FJ5eWIueE1dh2noPthcdgq36MLKqG+GqPgR3Vb3/ffAD8rwsW+ZSO5r+G/Q7YBuTbU6afsi2tJClr2N0LbdrlTaqq8+zqs/39HWMrrmsFTeqZ5RnJYPvGdXT53FZiSvbk5RtShQltSRuCWZs+Bobs5eJbQTu/bR9gIn2c2cis9IRIKfPAT0xSBPhxiH4p7NdeKwTCjdj7NK+iE6fheQ9W5FRngK71+4HYbLUyAafQ7uNQL+toDLTcJvC6WyjiO7SO6HShnlbJmHmxqHYmhsNd41dvC9oi5vYsibmg10DvjAQw86Z1qlmJ1HltK0tp1wh6y1uUtSMP6KPHH6VVDCZ2+b/0mu5Eukl8gzlkEydLF3EjiJPkkP3A3XOBJ14q53f5v6+8dgylyOgCKgbu6QPVibPRGZVKpxVTnFmjjg7RZwjQmdO0TkhdrgrtURgr0zClkE2N9ZJHX+2e5hjFxg3qscyDOYAlTttdDqezwr9LmoBV/mdqfzG8HYl5gTMKOmiUgcWfd0b27/sg/LFi3E0JQGNtmQQAMMgzJE0BYhpsKVCpXQ02JhsaLCFQRkONETo1LSBGEceV2W8aT402hJRsHg+lnf6FGULmgHEdB0aKz4nS19HooN56UwYOvuFDuBUDhVVDuq0OhSW7+V5ycFSKLfiB5iSF8iViJwylVQZLCvgLJdr78kygtJW7Rvdk/QhWao+lNa2S9c/JZ08FcCcDR4MmJeERYllSPP+CJuPDmlWzglSDhlWDnfNI5CjTEuUJ0hj12Cbau2sHwO/DJIVkNOUDL4v1/GnNXIoj8vquUFdbp/7xZzzTWXJsg3knlSdDPSh/oSgk/wspBbWo8fEtZiyIR9bi+thqzqKzOojcFU1wl15BG4fQPOJn9fA3Ahqx0QfYWPZjpS2Ksv39HX011yuKa6vZ3bdlBy6b1ZXzj+Rco6vTvLvgafyEBbtWILpGwdivWcxHNWpcNX6D9Ws9sC+NxOZezPgoHMeqhziPAdxQCsd0qojXjTp8+ma750sfjrodLJsI7drZCfOiy/aiNHLemNFxnQklm5GmjcF9ooMMQ/EQroyXQFjfA71sEU+dFHH5TabSnP7zJsqfyLusy7MT0SbTbXBujBvqvzxuk9nwszZOgHTNw/C5rwVyN6XIQBeOnSTiBxqim5QHVjFCSbHjJ1pbaSGCsBQvhnwEtjeoDl/hc/EkM4F0W9/ks6tUP87z+dacH2Zm8gylCPX06e5Df+ZNayXoRwqq6/P1yZyDM8IsZJD8kxkyfmBNLdvxFU5DOQyl0H9zblrMGppLyxL/Ra2vani94bODVLOEXIic68dzmqF1PkjnRcjnROj0V3oqNdL1UkGAUQ60CepjKm9j4+dTnmdDG1E9tLbWb6W7MnzW8d5Xhi/jxSAt6jUhu8H9kb8F33gXbQYPyQniC1ItBVJbEdKS8EPqQoQU2dPhUrpqLP7yWZDXVjkQJ0tQqemDWzquPJ4O5JFlBQBMSs7dkDFvPnhR8R0GbYG38TkY6unTnwdiQ7oFduPKhrElzhEpIP4gpEa+cIRMHrO0RrElQgPEzAmTNDDzGFhZ86QG4EtVnkRnXTAGY/hEVBEzJwN2eg3P0lExNjKj8LpPSwOZ87x0jw5DLdX+cIMOcXaiJNgR1KMl9VYhHjPbF7o82UH0Cytr6Neq/obzjPDeSM70sZpMz3kfFUHvYyW10lu1yptpJMREDN1fT7iChtBX9yi+UPb2+idQCCMTKHYNKiMbn4oOqnRaMp7SGszqz7xPbVvsqzw5ZC8U00n475RP1lXhbMtrLhap3l2ovkQAGI29Q8AMe4D2cpC2H+oprNacaSUBXTToAo7gjI3XmSpsoIX0U0t8HSLYd0iUd+erAun9WX018Y6SQtLXZtNldfKV78iYvQ1EW3ZpuzUUjoFg2tsK3KOdhRvxKjlvbHMNgMJpVuR6s1Aho+AGPrKlnLWBzsT+oM09ddWttL3nXVgrr9vdG0lvzn39G2wLsz1942um9OuVR19G6wLc/19o2sr+c29R3OBgJhvtgzCxrxoZO3PFACuEtngB2J8dikaRAVi2CkOjiJQ/1vfXL1EPZ0TyO01LVPvXBq9f4zKyHn6ND+3ellW5fT35LpyWpbNdYzy+J7MqZxelnyf7+nz5Gu1Le28U7af8Dtvc04sRi7rhe/TvkXG3nTY9mYH5grPFxmAUYC8UIEY7gfrpeoUPN5chrhcTs6X07JsLi/ncVmjPL5HnOvKaTmPyxrl8T3mcltcXs4zKsd5Mue6lMdpMzlG+XpZejmyTPW3TTtPOF/5bWEgZmcPBYg5nKoAMUfSkvBDqkp0JowaDUNpjpqI8DPPFtJY25PR4KfCJQsQ3akjKuc2A4jpNJyAmFxs9RwUn6cW0TDiMF7lc7P5ZUeRX9Y0CEOgjAzEqGntQl9ZxKuOZPB/s43Km+W1lByS31KyWkrOydRJdrAUQGbOBif6zVe2JmWWHoa7vAF5ZQfF+TAKEKN8lrkpIIad6oAzTk5ZEBH4Y0xGW7hUx1A7T4zKWuUZy1HGk/UOhWvn0pmvkwy8pRY0osfEdZi2rhCJeY1iyxoBNWILX/kPIhImMPY6UCbUfBUkUMFCeduLSBtuEzQBhgWwo8gKkkNf+/HLUudO03KobJCsiE4qCFdZr2xN2qgFYihEXHwtR/wXOyMQ6aBdmBkvqNgRlLl+kWUkJ/g/3W7xBQ36ikYwcci5zBVnTZbN7cq6cJrvMZfrcdrKIQznnvxfQ/5ChP7rL5ovv/g/8arWU20dTrtWZbmP3H/ibBvm8ldtthdvxIgVX2KJfQbiS3cgtTwTGRV2Ee1Azjc5tdyecq4Dne1gTFxOz0PRSdaX01xP5nrZzb1mmdyWkZ3ke5zmesyb275RPZbJbZ0KOrGeDMRM3ToIG/Jj4Njnga3KJW0xoS0lzsBc4b6c2lx2Lv1p+StI+rRllIBOlr6ufB2OHCor19Wnw5GlrytfhyPHQCc62Js/370xdz2GL++FRenfIq3GBttejwLEVNv925GUuSLmixT9ogd26dp8/ujsbaCTxm7h9E+2iz4djhwrnVpKDukXjix9f+TrcOQ0UZZ/D+V3mZpWgJhdJTYsHdAbyZ8pW5Pq0xUgRhzUmkrngyTjaLrylaTD9hQctqdF6CdhAxprLRUtWYBVHTuiat6C8CNiCIiZujoCxGidZz2YonWmjR12LqOvK19zmVC5XFefDlUGldPXla+N5ESAGHWMFVuFAsBwGa29tfZVnXkVRLDKU/WQ5ZxaOkWAGBmYUcc1AsTIdlHSAbBNAmI2upWtSZ792f6tJdliK4GrKsO/v9vsk68KSMCLJ3biZc73mBstmiNAjPTFiFMUiBm+MhiIUUCYCBDDc5u5fo4zUNESnGVzW8Tl543S8j1Ocz3mLaGLXkYEiDmJDq/sLOvTTTjEGiddX1e+DkcOlZXriq/iRIAYja3Znjo7BezG90PlZnIoP1QZVK6l5DTRZgSIiYBGzQfOtCAMgTItAsRsyVEiYpyVDf7PU0ciYlSHWnaCm0rLIIc+3VRd/X19fflaX9bqWq6nTxvViwAxKgCi2ItBllC4Om+orta+VqCL0T19feX61NIpAsTIgEMEiFHnsWwXayCGDkzM3UeHajqlgzUjQIze2Qz3Wl4A88LzdIuI2bZrI6yAGD7fg2xjFgnD+Wb2Y4CAgYPmAgwkx6yNcPNbSqdw27UqfyrqxPoSEDNr2wRQRMy6AiUixlGpRMQoB65GImLk90GLOrwt5Ty3lBwDh14bEROLoSt6+iNiaGuSHBGTKX6HAu+MSERMaEBKS41dS8k5ViDG5wBFxCzvr0TE0BkxRhExRzLosNZkf4REBNxoPrhxOtmuhYGYjiPWYPKaXDAQo9+apBzEezK3JmlBAd4mYOygap3eSJnm2kNrc3KstFuTjvq3JtVJW5P4jBjrNnlbSfB2JHmLkvG2JNqupDp5atpsnI3KWuUZy/GDHrpzSbgfoXFVV6v2je6p853GRGvb0NpWHGB9XfnaqF2rPLkupSNAjAw4qGMdiYiR7eJP+89U8ugiYjKr0oOAGPp0qHKwprr1hJ0udu+i328AACAASURBVAiJs/Os/8+80X/n5Xqc5oiYgJMS4kKQ6x0fnVrGoQ/0iT/R6aMzYtwaCndrEtstVM72Yc71eNyMQA8aO96eZATE0FeT+GsYpyoQw/0MhbNtZM71rOwk3+M012MuyzzWNMvktojrnzv5Hqe5HvNw9eB6VpyBmMnbtEBM4KBe8bWbyNakwDshxPdcoLyVY9tSslpKjiEQo773Nub6gZiMaUirUYEY+kqSmC9NgC/yFiXzOXmabE2yGtdw7rXU2LWUnCZ0539M8DtKy5XDeneVOLC8f1+xNSkIiElTtiYxEKN8PUf6hLX8OesTnNaeVyOdaaL5spOa33gC9AtXp1DKnwi9jdtQwDdlzJU0R8Q064yY9iODgZicilrkVCgRMacuEBPsmOodxMi11nEP3R7NA2LowF4CB6zaYfDgpwPEqI65Fbhhdk8LxGjnPNsyFG49JuHpqJcVAWJkwEG15SkJxNA5NXTujXT2Dc8xdQ7K/dGnlf4FZLAsSZ6lHEsgxiO2JolFbiX99zoCxITrsOrLy05UYOFZoTokGhCmwg0uo9YLPiPG3PFQy8plgnXSbimjBbDemedrAmPojBh9REwEiFFspnUeFFBStj2l9fY/lmuWLbfLY8Vcvsdprsc8XB24nhXXAzFZ+zygiJgIEGMACBgAFZoImSacWPX94JfdUs5zS8kx6B+/6wiIloEY+bDeCBBjMldCmQ8tNXYtJacJnfm3jt9RwZwiYrRATEOackYMnQ1D58QQjwAxoYFPoQAr4ZYxBklC0+fY6gYDMYWL5iO6Qwc0G4iZuDpHRMQ4vI3i09UExOR6I0CM3uH86VwbATH+ryYllCGz9CjcZYeRV0YRMcrXtQiECQeIsQYPVGdWderM88zGJZS6chljOUpEjPE9BXRqyb7I+lCanWQttwa7SFe9Ttb6m9tWr4+ik7b9cIGYULZ3WZYJRCepemvto7Wb2odgu6h2UmRZyVHvafuvta3UtgxSSECFKofKhiBLL0eSFVrf1H5r29a2r9pCLR+c17SdLHXSATHTN/UHnRGjRMQcGxATvJBSo2X4npEjx5EtAecixIUg12OnUpbN7YXC5XqcZpnhc/kQYeNFNTskzK0dMBVcYV1Yx1A512PO9axsw049cT0Qk1aWiUx/RIw+Yoq3E5hxRQetjWgceeytdDK6x32Rub6f8j2zNNeROZc1atcqj+sxl2Uea5plWrVvdI/ty1x9doLHwuget2vF6fPVM7dPAEfEEBBDX8lx+0FdT1BEjDruil7qXLdq58Te0+vYgmdohPie4zGz5C0lq6XkWAAx9N7TAzH26mwBBge+jhSJiAm8Ey3HXQY7WmrsWkqOrJtBWgVilC9qaa+VtQMDMSndv4J30fdoSE3CUVsakK7Qjxlp4vrYnPqWBw5ORUAjXJ1CKd+YkQ5TOq5RPuZATPWcZnw1iSJiCIjZmnsIWRWHI0CMpWNk5TSdSfckZ9L/KfK5G93i89XfJ5UHgBgCYSJAjJXTSvdUsKA56WDHWes8mznyegfarBzlh6uXXlYEiJGffenZ0QMo0leT1HGV6+rTfll6OWcIELNoxxIQELPe/b34Ao5nvxEQo3xiVu9Ays6QkeNnlifX4zQ7foEFZ4gLQa7HurE84mbtG+XL9TjNMsPnWsc20CdpIcoADPMIEKM6u0bjY5XH4yVzHjM5r6k015E517Fq3+ge12MuyzzWNMs0atcqTz8P1WdHO1/N8rldKx4BYk7ioaghvjP18yDouqXk0PtOJ4vfdwKIyVujnBGTMQ0ZNanQADF8TlmIYIz5nFTfK4F+6nTS6Ci9owPlzfJaSo6Z/Obkt5ROLSWniT5ogRc9GBMMxPi+iwAxxwI4hQKshFvGFIQhgOa0AmJGx55EIEbveMjXkkNj6MC09H25bX06nLb0ddXrY3V49Q5wy1w33TfSm4CYAQuSQUBMVtkPyPEeFSBMgbdRRF/w11AIANDrpQcFtNfHBlSQbvr2+Lr59jaXybIVrtgu3HbCKa867FbjdGJtrrWBtm3189X52JnfiJzyH6F8vrpRcIp0keeKdi40BWrp76tzx8pOqr319eXrpiM9rNowvKcHUJr7HtPLMQRiVFtY2TRYT3X8rOqp95q2Uyj29lQeAgEx0/xAjKPKBs++XPHpanVrUibo/I9sX2hfTbJyBPme8aJZu2C2XqBpyyoL5uD/pHN7oXBjnYJlhlJO78gaLehlh4TS1s6AuR5N9a0pfa3qG0XELHYon69ubkQMzStFJ6MxVPKsdDK611Qf6b5RPTmvKRly2VDSennhgi/6+kbXoeghlzGah+HlBc9DWT6lGYiZ6D8jxigiRp0DJE8/D4LbMOr7ic3T6xi5Dh630Gwiv/c25q3BkJU9sNBmBcTw4fF0gLw5mc+H0PRqVn8YrAiaw2ZtWs1tszph5rNORjxkPXUAWkj1jPrWtO7Wv/MqELOyX19QRIwZEEOH05LTHy6IYFU+XBDBSlZz7oXbvlH5UNqts6ciVDKWl44Gm5YC4MxxA2LkaJhENNoUUrYmfYrqOXPD/3x1+9GxGB/jwba8ehERk+2tw4nbmqQ6AVrnzsrpPF73zHSh/HDaNJejOiiy02Se1trEXO6xlWu6b6S3FoiBAsSUHcaZC8SwXWS7U57+2nz8wh1vo/KhzT1ZJyWtOs4y2MDpY9NZawNt26mF9egxcS2mrVOBGCpfVN6IAoquigAxYb5PpDNdZEBGeicZzRuz8Q+eT+r4mdXR5itzJ1gOPy/y3OL5ZsB9ChAzdWM/xLqXwF6pADG0OBILW58/EoaAmAqjhZaap3fIrK6NZWkXbdYLNOU/Z9rFs6oLy7fSQX+P67QEP5OBmCWZMxFfugMMxCjbkmwCrAsFbFDtqx1veSz1Y2N1rcoLHn/5npUMuieXNUo3VV++b1Q/FNvIZYxk6PPkNkNJyzZuXlpxjGQ99O1GgBjzed08m59Z8oyAmAUZ3yBtbzJsVS6xNSk7APpz35t+PuU5qU2zjOPAGewICaig9q360UL6sU5GPGQ9WwqIof5a98v6d14LxKR1swZijEGC5oMzRsCGVd7Jbt9It1B0ChWEoXLG8rQgDIEyJw6IUUEYAmMKF89FTPtmAjEdxqwLAmLyKg4hr6Le7zDQQl1dZIeeVhf4wY6b1bkbzWmrJepY6RuOfHM5xg6T7Lho08F2M5fd/LJN9430FkDM/FR/RAxEpEO+AGJI5x80UQ56XbSOnN4p0/Y5XBtReX17fB2uLK5nPcflMdDaLtz2QilvrQu3L+ukpI+nzVU7BbebXFiPzyetxdT1BMTUC8CO+kCAHXGOhqHDmq11DOW+Ones7KTa2UqmIstKTtj3ZOBEimI5ZjkGstQ+qjYxsq/advDYGZUPzmvaTqouFvbWATEZVTa49uWIw2LForGFgZhwFqLWCzQ1hFld6AUvcvVOotW1tW7Bsq3Kn0pADPfZTF++b8T1ETEjonuBgJidZfGwlWchq8IhDnOmA531Z3/IoIKcVvUwX6Ab6WKUp8pqenyM6uvzrOTpy5pdm8mQbRBK2kyOnG+mg1m++qyY257LGD9/TQMxFFX37fYJ4IgYZ41HvE/kM2IiETFN25/H4UzjeiBm8IrPwUAMHersIBCGgRgCE4Qj3/TzLT8X2vRxtDWDHU2ADeoYWvWjhfRknYx4yHq2JBBDfTbvm/F7hn/fQwNi6LyYRkeaCUhgBh40nW8EbFjlGYMUTbdjVs+qrVDvmcmW80MHYoIBF0VOcP6JAWL8IIx9Jxr9VLyohYAYp/cwKCImdCAmeDEf7KQx6GLEjeorziX99/yEUjl9hteEwtFFkqG3heqgyM6SeVpfXz6LI89rZE99npF99XnszJtzcsYCQExiBbLKdECMLspBr3ewMyc7aOb9N6qnl318rlVb8Bw0dmDVcnTfenzlPitpa921stX2jfL1Yxp8rbWlua7WOgXL1Zc/EUCMvk3lWm+XpnUNTQ7JZVn6Nqyvee4Ycevx1Mo1qs951nJYbysuvzOsyunvaXVU9NCXMb/O9QMxUzb1wxrPEjAQQ4dr0mJWfJK4QomKURa35gsqXmwZLaz4HnM9UEHXfI+5kRyjPC5vxZtbz0qm1b3g/rnh9iqk2YJktFimPP/CNVjOibcT22578WaMiO6jAWKc3nCAGOUcEu5bqFwPKmidLMWxaSk7ha4TOwpGkVnKGBnpFE5eqLpwOR4n5pzfXM5ytLz5QIwC1CmAnTUQEzzHjcY8OM+oXiSvueN/vOrpgZhBKwmImSIiYgiIIXA3WwZixPvQCsCQ77XcePP7OjQefMaSsf1kXfXpEHQ3+7043vkWQIraT31/5GvzvmnfL9r3Kr/7d+3Jwsp+/ZBuEhFz3IAYq0NoDe7pt+cc63UAzDiGs1ZkwEWbVsGTOns6QqUGmw0qqTL0fdXobqa/gQ2D6hmVEdudaGuSORCztzlbkzqOXS8iYrYXNMBVcfS0AWIoGoMjMtgpOSYuAShBgEyIQIyi01HklylEn/5WnThyvs0dYKN7cl1Kn2wgZuDCNCxN8sFZDrHFhOxdWHEUeT4gx6ec/UEOv15vLQigBySsbKIvGyxb31bLXB9BbvlhQTynVIdX1kHrjBqNoZqn9oXO1yGy1lUrW23fKF/WyTitHQNzm1vrZCxbrvNTA2J4nujHh/Kt3k/68lbXPAeNuFU9eVzM06cGEJNW5YCrJk985YQcHfGfewJivLyoMl9Q8YLMaGHF95gbOaR8j7mRHKM8Lm/Fw6nn9GbBjKzakO8F9+/MAGKGrYoAMTTOPJ+yvFkg0s8XKhM8B8LLk+dTKGnWiXkodazKsBwtjwAxVjaL3Avh96HCDQZjNuStAQEx821mQEyOcnaW5ZYe/m0i3nT7oZYJDYDh93rws23cjqyrPh2C7scRcHGWu8Ak/7NA5Inf/6b00/dHvjavq32/qO9WJd8fESMBMZULgw/rPV2AmLqMNDDpgQujaw0o0cyzVrTgixydo4IooYIwVE4FYQiQUWXo0xrdTxcgpv249Rgb44YZEKM4cEbOH+U17ZhZR24Y1Vfaoq0MVsRf7LEqo94ziq5h+Ub3jPK4fDAvrKCzUo4Ix4sBIuLkjMmOkuqUmzvCchm5LtlaBohU28uOlD7N9jUbv9DyaQ5QREzoQIxWrtyn8NIqeMFAgtpv7ltzuVZHra2PIKesQRDl09jq7weupe0nub5GBJEB+OYubwCRdV/8bUry8/RpK71090K1u7VOTdv6JwHESOMQBMT47+V6G5BX2mAa1ReYP7pxMso3AmA4z6i8mtf0eGnfz6GU5zJGzwTfa5pTRMzC+CWYtJkiYpbCEIjxKoCM8h9o8wUVLzyNFlZ8j7mRk8r3mBvJMcrj8lY8nHpZZZkg0jvXdG3VhnwvuH+8YNcdyutfWLt9HsPDeoPlqPY36pNVnqyfWdqqPkXEWAExtPWEIx2Mt94ozopZ22b5/F9R5sGREDQ/m3aErPrG94x08FSqEUp8n8q7KrORWZ55ygIxbl92yPOV+yVztomWhw7ETNg+COsKYsBbkyIRMeqzK9v5p5aW55MCxHQ3AWJccFbkKKANn1nWJCDTcjY+XkAMvyOD32Mh6P4TBmKiv1IiYoyAGHFQ7/HYmmQUjWGRpwcj9ADHIVsamPT3FJBDC2xowIwWAmLUbUjBUTAHHemwIqGzzYY6Jn8kjb7fdK3R/XQFYtzldSjwnxGjOG+KM6wu7uUFeNMLbu1C3wwokOUoh1OqIEojtqXmY/rC1ZgyNxrr410g4IOAmNjtmZg0O1rQuh1ZFsBNqMCKcTkGfYgX+Y4EvhZEOlIe6ZNZsA85JfUaMIadNOY5XhWcacoxZnvLDtfJBWJyVCCmzB8RU/6DQUSMPD+UdFN9Nb9/YoCYwsofUH4AKK4GsncfEgCMp7Qe7pI6AcAU+X4AEY0Fj7EyLiooxyBJEBBD4IwOjMkuq4erhJ6zHwXllB0GEYEghT7484+ioOIoiqt/QE5ZHXLFlsFGcDsaHoIzr9fB7DoCxATPX9UmR1BYeUS8A/LK6sSzv6cagciX4sqjgXcQjQ/NFYoYcxXVBoEy/HyHwvkdYMSt68vvVbO0/E42K2OUb2Uno/LaPBmIWW0CxOScwkBMqE6MvPjntFw3p8ojwBfKyyx1wFFiNwVjZIBGliGng4GBpoGYnKpcECDjKMmEfY8N2eVZcOxWuCyP2+F+hMq5nhW3kiUDMYmlyhkxtDUpt4K2m9hxzEAMOxm6/2ozAMPcyIGR7cNpfT+t+sb35Do0zjQXcqtzkFeTK4A5uiaAI7cmF9lVbthK7QoYYwDc0fjJxHqFykmXtKJUpO9KE23SHOW5R0Ah60r6EBFgRGU4n66pvFyW74XC2SZafmxAjDJXVMAuFD2UMvJ/183SITiyurkVevsR2S1lK3k+bcyLwaCVwUCM+EofRZ6dcUCMC55KFwr35yGr3I6canpuaW6FCPLzO/IYOP2+0O+MpzIHudV5oN8dyiPKKnOKqBiKiOHoGMrjf07Qe4beMcSD54PZc2ndN3k+GKezQFuTZCDmcGoSKAoG6Qqd6kAMgxsMwhA/nGVHvSNDADMH01ME1wMaGjCjRYEYLQjD+jXF6zIzcDgrMwDEUB8IlNFGySjXjRk2LRhjpL8FqKXpu76ckCVtTaItStIZMavbf4pmbU2SI2Lc3qNgIKbAW+93IBmI0S6kVedEny8v7PVppawMKASlRQQCObj1Aafm2+/W4LEX38Y9j72C/iOno6iyEYUVDRg8Zibue+wVPPJsW4yfvgRF5fXi6yzKF1pUJ1kFdWSghdugdtS2VGeH69cLh4sdLwJi4jLyEbMlHZuSsmHLrRRAjLOoBjklh0DlZCKghv47LpPGiZb+u67PV/UmXWTdj2iiY8iGynjI9uY84kZOkz5PLq9NKxExORi4IEPZmiQDMd4fdVuT9HLDuda2az7HQu2T2naQ/QL2bERGjg+T56wStDWtCATCkM2IE5FDnbv7IHZXHkXZXggu5lhZg/9rQMocEgdcV9Qj1ydTcJQMRcMQGENATFEl4ClpxM7MciQ5K2DL2ycAIAKHCAjamODG1PmrMG/5BiRllQSeCeM5q84R/ZgbAS/W9g1nLNSyoUbE0Jw6Hu0by1Tngd4u+mvzeaLYlsZg8art+HbBWqzdYhdzodh7GAVlDYjZlIHxM5diwcrtYk7Rs0/PMEXGBG9T4veLEVfHsSl9hP76d0jgeWcbm70X6L7VPa7f8jwYiMkK2poULhATvEALdmKMnFF9PQ5fN+Q+9WwOI1mcF5BpsnClxSYtNGnh6anwCHKWEADiAHFXqVND2WUuyBTef01VMEZfj9rJq8xFYU2h0MG+y47VO1dj4ep5WJewFukFKSLqg0EIBiUUrg/nNr4O2KKZzqgeiLGXEdBgDMSwnloePA8COunHJ0wd9faUr7kN40W+1lZySD7Ni7SidOT4chTyOyAEcBTsyxcOCQF2RATQsLNCnAAQeZ5QWtaJ56cl92UHwEDqA7VLRPJ3ZMdhZvQMDJ0+BL3H9EL/if0weeEkxCauDbTDestzXO6fadpve2N7hQ/EZO9VwKHcikw/aNdSQIzFfApz/vAcifATa1MViJmEtL2J4otJBO4qW2GPHxCjfRbN38uhlwuOyFOfbVU+AbOuskzk+NzIq/QIkNcY1DAeByt9TJ9n3bs1vTgDyzavwLyY+YhNXAd7cSZyKvIEeby54r3Fv3v03qK0s8SB1PxkLN28RFByfpJ4F2mfl+MFxLgMgZgfMxQQhjgBMfWOtMAnmM2348hbc7RpS8dfDwRorglwUEgPSBBIcdBuQ63Dz20Z2J+agh3ffouYMaOR9t1ClGzbhP2pSU0DMVKbDNiEojOXZR6IxPFHtZB+oVKtLQPF69djy9QpWDN6NBxLlpxkIIY/Ya1+OYkO6z2DgBhyTLTgyPDJ83HF9bfjksv/jvc79hYgTH55HTr2GIzfXvlPXHPjPfh69IwmgBgGW9jJkduR25PvK2Xyyg4ie9cB8Z9w0m3I+Dl48e1P8clnA7E0NiEQISMDMJxuOSCGdGHd/Fw610ZxQM2cqlAcUXNnKwDE8BkxMhATdEZMKG2ZlTHXIdjBNpNhnB9ku4AtG7E1JRdPvPgennrlIyzfmCoAEIpGoUgm2qJkz9uLHakFiE8rRH5pHcjxJk5gjAL6WQExDMqogEx22SEBeBZV/SgiYVZssqPP8Jn4fOAkzFq6BWk5VSIaxrnrICbOWoFX/tMRHXp+jTXbHP45IM9dg3kRcMRVW0SAGNUWevBFvjafJ8ozt3x9Cjp9MQRtP+yOSTNXYE/VD2I+EBAzfPxcvPDWJ+jWdxS2pngECEPP/+4qBD+7llsvdc95YK4G5xsCMQTMiDnAz5PZe4HuW93j+i3PjYGYAs0ZMT8VICYlLwUxO2Kw3bFdgDAnEoihBS8DMbaiDMxaOQsvf/ASHnv5EXw1qg82pq0/s4EYcpxlhyFMR9rSQbEEFqyBGHJa8qvyxHzYbN+E2JS1iHfvEGAIOVAcPdXSQIyIpPHrLTtqKQXJAoB5v8f7aP3yg7jh/utx5S1X4Orb/4JWj7bCi++9iCFTBmOrbYtwoAhcJLsSGKOxr2xrfdrSXhEgRut8GjvMkTKh2SU0IEb6il8LbU2yel80715oQAyBMPZdGQJYj4mPxk5PvHiHhDpfrHQL9fmOd+/EB90/ROsXH0Lb9m9jynffILvMjYLqQkEK8KL8E4LBZNI5Om45XnzveTz/n2cwd+2ckxIRY+v6FWhrEkXEnG5ADIMxexMTMaF9e3R66knM79cX+etWCxCmya1JxxGIYd2aAmTqHHakzJuHIf/9D7o/+wwWDxwQAWKCnWJ5oS4v7IHcsh8FKQt+pVxQFIwEKChRIBQtcCgQqTJiygJccf1tuPD31+Kddl/AU3IA2bv2CSDmD1ffgutufgBDxs6yAGK08hRnq1Fpg9rxEzlN6n+uycFVHF4CYijiRdl6UI9X3+uIqPMvw7U334vR3ywSETB0j8rpiQAjNRqGt5jUK58Hp0+EW5AekDKMkPHbznpMQnFC5THUpoOAGMvDekNpy6yMtt1j75PaTrCDrWwrozFft8OBG29/FDfd8RgWxuwAASAEwhAYQxExa7ZlYdDImRgxcR4S7UXI2b0fuXsOhAnEqIAMAzG79gKZRbXoO2I2/v3o67iu1SPo0ncc4my7BACUWbQfg8bMxh0PPYd3P+2BVZszIkBMSOdS6eeROg9k0MUoHTxPZPCjEbOXbsDLb3+CR559E6MmLxBADEVL5ZceRP8RU3HvEy/jP+2/QGxchgCMCZAtrvwxbCBGPmvKSqcIEBPawpsXnOp/C9UFLN9jbhgJwwc9+lyBszmMZHEey7JapJKTmlKQimHThuHtDm0xdfFUzX8F+b+DxHlhytxqYRzOPXKYCfjZZt+KsXPG4uGXH0bUuVGI+lkUXn6vjVgEU58owkQbDUPXWjDB7DpgizBBDq5HETFDV/XBoqyZoK1JLRoRwzoxKMDXIXIrW7P+ZnbhfFGO2/eDFxQVU1CdjyUbFqP9V5+ix/DPsXTr97DtzhDh+byFTY6GCSUiRr9lyehaRNX4t8oRGENblL5ZOhX3v3gfoi6OwqV//RX+fOuV+Ntdf8Vf/30tfnPtrxF1fhR+97ff4ouhPZDoThBziiO+rJ4BzT2/zdkuWt7SQIz1tgUeO21kFf/nPbx3jiorUu9UsQUBMQOiaWuSSUSMN0/ZntTCZ8RYvS+ad0/9HePfHpWrETEExCR64tF/fF+0ef8FzFo1E6mFKQaghvEctdJN8wxL7zF9/rrUDbjx3n8i6hdR+MXvz8Ozbz+H1fFr4S7PEUAM/Q7xPyH4d44iMifOH4fz/nguzv39ORg4eYABgMTPpRE37g/NQ+37RX+tvG94axIBMdULTi8ghkCO/ZlqVAwBMf3efAOv3XYrJnftjLzYGNRn2cRXizhqhblZxAvfb0hPA5FZOcoPlPUfrKsCPspZL6Qf0aEsR5ORMQTEUDQPgTBt77gds77oYQHE6M6JOS5bk4wjYmJO1a1JdPYFfT2ISEkrXxMRoIcI3feDJAyGePcjX1CtH4g5glFT5+Pyv/8LP7v4DwIEcRZVI3v3XnTsMQiX/eUmXP2PfwsniJwh2p5EnMAaAkEEmFFxKCCT2iXHhrY2MQBT6DuIQl8dPHsOBhwm4QiV1yHfWxtwqIRTVdWA197vgLMv+j3+duu9GDP9O7E1yb27FjmltcgrOyAop3Q/iEgHBmfonA9uk+RS2ojLeeT0E5GMQH8C/01XnUTVqWQnNHTnU6nL9YJ5rheYu5HOiEnB0mSv8tWkCuXMFDofJ8/3o/LVJB9tYwu3Xbl8cNvBYIxans/eoS1dDHbpt3fxtRbEUkAYGi+aJ7Hb0nHdTffiH7e3xvwV25C5qxZ0nk+e7yhSPV4MnTAXN9z2IP77SQ9sS8lGXkmtII6Ioa1yNM9yvbUByqmoBf3XnziR23tAXOdV1iGvsgH5VY0oqjqK7N31GD75ezz28ge489GX8OWQKdieUSzOqknO9mLg6Fm4vfWz+KDzl1i91a5sSWOAUIB4HP2g2kWdC2reTyciRu2zkR1EnjRfeN4wV99LDMQyrxfP6rffxeC5198LADEEyGUX1QgaOPIb3PP4i3jjw05YtSVFzAnerqi8dxRZ3IaWK2fOyOXofcPXoqz/S3EM0giAxncYBb7DAtCl90vgLKGQI2JCeeZargyBukSeSt1hvZUuuGoKxOKInB8KEc8V2yrMF1LNWdSri1RlAUuOKJ9/EeAMuvh5lpdC1d0gLn+pRpZFcviaZZJ+fBiuUWRAZmkWFm9agqtuuQo/+83P8Nngz4KAGHlhyoCMvChmsIYXrsQpjwAWuRyl5TwuOiCOVAAAIABJREFUn5C9E4vXL0KHvh1wbatrEHVeFKLOikJUVBRe/eBlrNqxIhAR4/Q5oJIemNEvZNXr5oyTXCcUIMZV6TQAivQ6sjPf9JyiuRAANhggMPpKkd/eZE+9vQnEYFCD+8MyA3Ml8JUjyWnyb0sjea/97zVc8OcL8dArrbFg3XwRlk/nxtAZLiSLieeuaMdkG5sYc+n8GNJBBmIoTQ4bySo6UBh4LggAerLtE4i6JAo///05ePGDF8SWpClLJmPCwvFo1/NjXPHPyxF1dhR++9ffYMGaBWKLnX2PA0R6h0xcWwBdxg4Sj53qbOmBwcwqG77dPgF8WK/11iSS0/Q8iAAxodjo9CtjCcQQGNrCQEzg+dQ9m/we5veHiCTzv0vke/o0v8s9Fdni/UzPrfwbpLxf1HcK3VuTEIOoc6IQ9X9R6DuuDxJydwaeAX5PEad3Cj8brDf/frAe8rvO6Pnm3zv+/aMyBMT89fbrlN+XX0ThypuuQse+nZHoThLbk4yAGNqWNGrGcAHEEBgzeNrXAd1YR+NnlN8TPDf5WuXq+4N/q4J/L3bvcSD6q744FYAYGdgIOryWD7GVOIEc+7JsOGDPwIGMNFQnJ6HP22/i9XvuxPiunZC9aoU4IJe/pkTnxdDZMbW2NEF0botIpyWLLy4ddiigDeVRncNpChhDadJNcAJo/MCLfC7NofQU5atN6RniXBeKgGGQ6EhmJurSM3AoI0PoSrw+NQ2H0vyUkSF03zz9G3R+8Tm0ve9uzOnXRwfEqMBPABwyAmBCzZOigALyKC9wRow5EFPdnM9XH88zYoqrEABgyOG0F9TAUbgPmQV7kVnoQ2aRF+6SSrh2l8C1ezc8ZSVwFBUhs6gM2burhCNDYf3jZizGlf+4Gb/4zeV4v+OXcBZVCuCk/ecD8ZsrbhBAzFdDJyErvwL5ZQeQlFmEjYlZSPeUCXDEU7IXOWWV8JRWKcBIKR2wS1/FqRG0e68CBtH2o9J9EAdskrPjKq6Ba5cPRZX1cBXvh3v3fqH3Ey+3RdQ55+Oqf7bCsElzRLQMRcyQU0+ATnFVAzwl+4SeeSX7hV62nDI4C3wCnHHvobL7RFkClEg+ATgEzBB4Q/eIqM667RlYv8OG9Ow9IACKABly/BXnn53E0JxxU8dU47QFO13BQMyPwpkicONkAjF0hgptHSKwJXtPrSA6TNWI6GwfJnJqaSwpqorGYu3WNNx424O4+c5HsWDlVgHE8DkuO7N2YdCoqbj+tnvw5gcdsSXRiYKyOuyuPIzyGmBXxREUV9FXs+rhKdsPd+k+OPfsRW7FfhTW1CO7vAausr2wFXuRX30Iuw4cxu4DP2D3AQg9CWhKyPLi80Hj0HfUJMRsyxAROdS39NxqjJq6CHc/1gbvfvqZEhFDEVBiqwpHU4U29hEgRgJoQgRiaG7TNrRdvkbsqjyEgvL9mLdsDdq0/QAPPvUyho6fJUBSAcQUV+PLQWNw92Mv4O123RC9OSEAxDAYs7uaDrc+LABfAlk4X4As5XV+IPegeDfR+4medQILxTMmlydAxn/+zK6aH1CyHyiqboCnrBY55QcFwMcHQSucDoBmUg6I1t5X8oJBz+B3wbGWkYGYRTuWYMom5atJGfQ1GD8QQyAMbUs6UUAMbe+gQ2o5ysDl88BdTYei+r+cUa4AKgSc8LkctAik/fa8EKbDbdm5pkUxyaQyRQeKBRjDC1NetNKBhXRI4cyVs3DZdZeJSIPuX3cXYAktsglMoYUpndnCAAxxWgDzeS60pYju05YiOluG7hNlFCrni5Acmag8EclggIciGAQAc3EUon4ZhXMuPRtRP48S9Fa7N7B861Jk7rH7I2JkIIbS8sKVF7PBXF0w86I4PH4ygBgaP/qPMTklfBAtjT9FedBYUprmDNubx4YdFjonpbi2KADE8KG7tuI0OHfbkevNRl5FjkKVuSL6heqQnMw9dJaDcj7Mqx+9gp/97hzc/cw94r/Y7CSRfgz0ECcd+XBfqkvjLjtNlCa5Yiz9YAzPVwZk6DwGoZ83S5xFQ+NGZzJ0GtBRREkRCPNmhzfEOTF0j54FsgFtrRs3d5wAaiiS6p2O72BNwhpjAIb/Y24BgkSAmPCej2N9vn6K9U8mEEPPOBE9k5wmTs9t0b4i8ZzSe5re0fTM8rtaLkvRcvSMF+zNFb9DtIWHnl86/4V/k2SwhH6rtmRsFNEo9H7/clRPxLm2i98oencQ4ELvEYq4owg4mhN0zUAv6UNtsj6kK+UR5980mdM7kn7jCvcXiUN5Kb09K06JiDlb+X2hKLo//eNyzF01D84SPhNGPR+N7EMRMZMWjseFV/wSZ10aJSJiSC/tnFXBlWBQhp+l4DLq7xf/Zsm/Z0r6ZAMxctQJAxzisN0sGw5m2kVECUeW6Lf3HMiy44DLgf22NFA0TFVKEvp8+C5euv9OTOjZXWxNIuCFAJQDyYmoSU7AYY8TNRnJqM5Iwn5nBqqz0lASt0WcJYPCPDS6s7DPoXyB6UhqGupSk8U9cfgvATlpKSDApiHT5j8MOA01SUnYn5SEupRUNEhADIFEpDMys3BoZ5IAY0jXA4lJOLg9Hvu3xuFA/E4FpMlyYMucGej8ehu8/XhrzBs8QNRVz8ZpYSCGABcjMMYCiClcPBfRHT7F8QFivMoXcrRnCWi3H5ndo21J+WVHkVPSiOSsCoyYvBi33vccbr3vGdx6/+O49YGHcduDD+OO1g/ijofuxx0P3YtWD9+Pm+69X/xXeUuyWxyUOmLqHFx108246A9X4uMuveHZtRe7KxtE+uI/XIMr/34bOvYYgMmzlwgH6bK/3IifX/wHXHTZtbjjgefQf8QkuIr3oKyWAJID+HbhBnHuxn1PvYQufQYjzpatACD+iBj+Ms6y9Yl459OuaPXgM7j70VfR/avReOi513He7/6EqKifI+qXF+OP19yMB554A2OmLoHN40VeaQ2KvLVwFVVg3rJYtHnrI/zj1vtwyWVX49eXX4f7n2iDbn2GYuWGeOSX7UN2sQ8lextEHXL0HLmlmDRrMR574U384ep/4txf/QnnXnIFLv3T3/HgU69i/PRFAqAhJ03ZuqSAMRz5IbjBGSHBIEwoTpYyzgoQQ5+vpoiYMjjL9UDM0SYiYkJpK9Qyfoe6olEBMioa4Sk9hOK9R0BOaaEfpGKwSs/JZiK6qPSgAO1ovNZuScYN/7oH/2xFETFbYC+uQX7VEeR4G7A1IwdfDR+DW+9+EB937oltKU4UlNcKMIZAmJJqOv+Dvo7TIOYQAWqZuypgKyiDu6wKxTWHULT3IHK8e+Epr0Z2SSWyS6qRU35AAYx8ZOMfkOIphaOwVABEnj11cO+qR4rTh6ET5ouImLf+1xkrN6T6I2IoEqopICZUe7ZsuZN/WK8EuPBzoD/MNnDNZ0MZcxrT4ooGFJYeQEllHfZUH8J30bFo0/Y9PPhUGz8QU4Ps4mpBBMTc+9hzeKddF6zalKAAqyWHBOBCEXMB4JJAldLaQLQcvZMEKCgi3xQwlwBdjp6rOAgRjUOgIYG2JTW01alemW/0hTtfLXbta0BhVT2y9+wXwGQwACMDMcoXuWjrnUzqO6Jl54QM3uiBmKkb+yHWvRQExLj3KhExJwqIoUVr0b4CAWQIx9VLB5I6xQKyoKZQfNmBFpR5e/PFopkWxLS4pQUoEaUJAKG6tECla1qs0tkelKZFNdWnr0OwPJJvK6IDCNPFYYWzV87F7/52mQBB6L+Djl0Unu1CTlkOXHtc8JS6kV2SjVxvLoqqClFQWSDu0TW1RaAMtU1gDHFOszNOujGRTrSYJ/CGiK5pS9SFV1yAS6+5VJwNM3n+ZPzhb39A1IVReON/r4mtSeK/ogJ0cSCzUiGKjNEuennB2/I8HCAmszJLHLwpc3XBHbzQZqdfXtiT88GOCXHloFr6gkc2nOV07olbADHiix+76YBP5T/PDHyQvcnOBFDQPKExovGgsSG753o9KKrMQ26ZGymeRNgK0uHcnSkoa5cDzt1O5FXkibnw1qdtxdg8/tpjWBi7UOhFgEvh/gIlOmZvfuCLVwQOCeenplC0S+2RLjzuxKl9oacUwSUDiuI/6wQy+p0zisIR0TAXReHym/+EuKw4VYbkSNIBz/c9+4Bw9B54/kEs37JS9JltwzzgrBkCMcHOknaOWd8PPyJGL6/l5648ryLpU8e+JwKI4TlPnN8J9HtB7wJ6P4j3sv/9Tu97yiei55PKEdEzzIAMPbt8zb8x9N7nd7mnzAV6f/AzT/l8j8pvSNmgADHnRqHf2K+QnJss9KD3Bn3FiN4dlKbfLf59o/bSC9KUd4b/PDFZT+oH9y/wbNNv5N588ZtHZ8DQ752rNBs7snbiXw/cIqItz770HFx05cUiOuf2h1ohwZkgfu/oN8+1JwvZJU5Qf/RAzKBJAySgyR/Vanl+D885/bNu9FvAeeo/HI4ViDF05o0cfJM8zRYgu12AEvvSUrA3IxWV9lRUOdI0VG3PAFOVLR3laSnwpaSgzuZAeWICPnv3LTx1960Y2b0jXDHR2J+eioOpqailqBeXHQddNtS4MlDpssHntsOX40ClMw301aJ9KYni/gG3XWxp+jFDiW5pcGYKUKg6NVkAQ8S9yTtRmZYs9KxOTcWBDPrqkVNQvT0T+x0O7M1y4FBWFmB3ARlOHM1yoS7bhcOOLBxOzsChxFQcSsvADx63iJ5ZO3MqOrzRBq88ci/Gf9FNADGG9g016qWpckZjEqgTHBHDQEzl3LkI5S9KLtRkREwLATFJmV70HDgFZ11wBc664E8468LLcNZFv0bUhRcj6oJfIuqCX+Csi85F1AXnIurcX+LW+x8FASHklBIQc8U/bsB5v/k9Puj4hYgw2V1Vh85fDsJvrvw7zr7gMgFa/O6qG0Q66uwLEBV1nkK/uAx/vPZGvNj2bSQ6PSLKZXFMAu565CVEXfBb0c63i5fBvac6EC1DQAxtU+o3ciou/fO1uOiP1+CuR17Ba+91w8V/+iuifnEhos69AFHnnAdq66LL/o7P+45FhqdEADGbdtrRtfdgXHfzPfjFpZcj6txLERV1PqJ+cSnO+/WVAUBm4sxFgf+0l+87IuoSaHTjHQ/i/y75I6J+fomQH/XzSxF11kX4v4svx+V/vRXvffoFtqXm+oEYPihW92ljdkJNeSjOlh6ISZKAGAIDlK9X0RaeHB/gMd2aFEpboZZRgRgCnejTzhQFYC+oxJT5qzBw3EwMHDMDA8dMl4iuFRow6lsMmzgPS9fsFFFGBIZt2mHDjbfcg3/d8RAWrtqCrD0HsHRTKvqPm43uA0bh5Xc+wI2t7sYjz7yCz/sMw+Ax34rzQZavTRIREwT2+A4B6Z4SzFgcg+4DRuDNdp3wwrsfou2nXdF94DD0HTUB6xIzBDjjKatBdkmNP3IB4ktJ42YtwaBxU7F6W5qIeMkrPWwBxCjnGynnC5lFxIRqz5Ytd7oAMcs2JmHQ+FkYPI5ohp/4WuE0Z/oNm4qRE+bAlV+OgvIaLFq1Dq+99xEeff41jJoyB0XeQwLQo3nUb/h4tH7mRbzf4TPEbk/F7molYow/eU+RgItj4tFz0CRx1lWbd9qjXfcB4vDvmYvXIdm1SwAuFIXnKChHTlm1AOcmz12CAWMmI3pzPJJc+Zi1NAafDRiGNz7qIOZXh94DMPW7ZYjPykMebfGk7UoCZGHwReYU/aIFYPj6ZAIx9pMAxJADWliTLxa6FEUydt44vPfZ+3jo5Ydx26OtcO/z9+HNDm9h2LfDhVNNC2Ja5NJClBa4y7Yswwfd3xdbM2iRS1syeg77Ai/85wXc+tAtuPupu/BWx7aYtmw6UgvTAovdrbZtGDJlKP7T+T08/toT+L/fnSsiUFo9cgfa9fxEHGj42YDPkO/LR7wjHn1H9sUnX3yCad9Nw+aUzRg/azzeaf8O7nj8Dtz15L/xUY+P0LlfJ3Qb2A0zln0rFte0mOcFsljwV3iQmp+KuavmCPCF9CbnefDkr8W5HnQ+DX35Zu2Otbj+zutFZMxrH72ibE2iLTY+AjhObSBGBl/ktDUQQ4tvXqwrnP7jSuALOc7E6Xptciz6jOmHlz56FXc/cx9ueeRWPPnWU+g6oAu+W/edcFZofjBYRw7S/NXz0PGrjmLLWfT2lWJ+dOvfBW3+8wLufvQO3P/UPfhPx3cwe+m3sOeloaAyTzhSKzatwIfdPhRz4bo7r8fZl54ttv48+eaT+E+3d/HZ0O5YsmWJ+M/1wvXfodfo3ug/YQAWxC7E0i3LxHg+8sojuKX1zQJce7/be3i387sif2PaRj9wpDgxHBVDWxcSsndg2LQh+Kjnhxg7b4zYujBt2Te4/YlW+L8//hyvffKqqEt9JAeM5hjNLXLydjh3oM17L+OsX52N2x5uhSUbvg84c7JDGnDWIkCM7r/62jkYAW2Orz1ONBBDzwv9ZtB7gQDaifMngJ7L1s+3xp2P3omnXntSvMeHTh0SOLSdnhsCROg5o98a2rpKvy/rkmJFxFnvUb3xxOuP4x/33CB+b97+9C2Mmj5CvIv4+VyfvE6cQUa/Ea+3e11sH6Sotdsfu138Dvzvi/+Jd8fWzO2gA8IHTh4k3ln0O0LvrDGzRot69Ht23b+vE1tY2/duL37z6DeDwCIGY0hffr7pHxD0Pnq/2wfoOqAbvt+4FNHbV4HeZ7Q96q4n78Yb7d5C1AVRuPiKi9GxV0fxW8dADIExJweIUUEY+mfDqQDEUJQJATKHHQ4BmpRs24IFw7/G2K96YGz/njrqhdEDemFs/14Y1+cLTOvfF1tnzcJBuwPepER8/p+2eOae2zDqs07IXr0K9DWig+lp8CXEoc7tQLktEavnT8P4wb3Ro/OH+OC/r6Dze69hco+uWD1uFIp2boEvMwX7bSk4kp6OhkwH8jatx5junTC292dI3rAKiWuXY8G44RjUpR06v/0qOr75CkZ81gWxM6cjd+tmEEBEIEyV04EDWZn4wenGgYQUlO7Ygc1zZ+Ob3r3Q/4P30OON1zH403ZYMn4kipJ3IHb+DAHEvNj6LhHRQ9E0ESAmhK9tFNJ/+0sPC3LkUVj/NrT9Xw+0/V83tP24C9q264C27T7Fmx9+gDsffgDnXPJLRP3y5wIxfe7N/yI2zi4+/Trqm7m4/Ibr8Itf/w7vd+ghgJg91fUiCuaSP/4VUWedj6j/+5WIgqHzGyji5POvhuPZV9/HZVfdjKhzLsBv/nwVeg0dIf7znGDfg8fbvIOo8y7Br668Bu179hXblpQoEyXCJNG+C++1/xxR/3cBLr3y7+jRfzxmLdmI3kPH49pbbhdgDIE0j7/4Frr2GonFq3aISB2KaCEQ5orrbsFZ5/8Wf7zmJvy3XXfhwHfqMQBPPP8mSGe6d9fDz4qomeKKgyBg6fs1W/HAky8JwOa3f74e737UBf2HTsCQcTPwcZe+4gyTqPN+hz9c/S/0GDBa+Y+5/wtTmogY/o+/KQhDYEYoDrgJEOM9Ks6C4UgQAcRU/njSgBjakkFbiD7s1hcPv9gWDz33pjk92xatn3kL/YZPxo40N4p9B7AlwYZ/3nY3bv53a3wXsxXOklqMmLYErV/8D+596hXcft/D+Mct/8ad9z6K+x55QUQmvfx2exEFRV/LoegGR0EF+o2chDbvfoy7H3sON/77Qdxwx31o1foJ3PPE83j4hdfwdrsumL4kGknZBSIqhs6Ice85jE1JBXj5vY54rM1r+GZBtNgaR9uPUlxeDJu4QBzWS89L9KY09YwYioQQFAFitHM5lIiYegybPB8PPPsGWuvpmbfE/KA5QvTw02/h6Zf/i3T3LjFXlqzZgDc++B8eb/MaRk+dK4AYESFVvh/9RoxF62eex/sduyF2e7IfiKFtkIex01aMwePm4NX/dsWDT7dFqweeww23Pyz4Q8+2xbOvfyCA3zXb0+EsrkBBxX7kV1RjpyMbb/yvHR5+8SV07z8I/UaNwdNvvIW7H38KN951L66/627c/sgTeOqNd9Fr+Fis3ZkugMnTBYihrUkUEcNADDkgHBGTQ1uCxEGxLbcoZ8eTOIVwUwQALVZpoXrj/f/Er669FFG/PlscPkpnYlx41UW48uY/472u/8XyrcsD/2GkBTUtRM/7w3nisFICQshRvvKmK/HLP9HvmLIX/9K//ho33PcP9Bj+BWixS9ExSzctx1NvPoNLrrpU+a/g+crhuATIUKg20b/u/ZeIiiDg5f6n78dvrv6NWKx/2vNT3HTPP3HJVZcoOv4yShywS4AMbXF69u1nxEKf/2vJIAzxVXHReOXDl0Vd+tIN9Yf6Tl+6ISCK/vu5NX0zrr75apx1cRQIiKEvVtCYnNlADP23VJ1jDL7Q1hsK05+8eBIef/NJ/KXVtTj3j+cL54EcCJondL4P2Z4OXN6SsVk4JuSQkLM1aNIgXH7jn3Dz/TfhzY9fxyNtHsLlN/wRF11+Ac66IApnXxiF3/3lUtze+hYMnzwYaZ5kOArSMWH2BFz650txxT+vxM9+TZG3UWLbD82rS6+5RHypiLYW0Dkxg6Z8jVaP3y62Lr3T+V08/Oojynktl0Qh6qIose2MHKjfX/97/OvBf4kvGynAiArE0HNAW5bmrpqFa2//Cy686gJxODBtXaBDeh946X5xMC8dGEwgDDmU/N96mmcU8UNA5L1P3iMiqe576j4s3bAU9ElaOohTJnbUZHur6eD/WkciYtR5qdopknestjjRQAyBKfTsEIjyaa9P8Lc7/ybew+dddh7O/e25OP/35+NXV/8K19x2tfgCGX1FjyJR6PkiMIYAEXrXUD0CYx566SFxTWeLEbBC74hf/+VXuO72a/HhZx+KyDV65xNI3Ob9NuI36qIrLxS+FZ3ldM5vz8H5l58vdHjktUexOnGNOM/pnufuxZ/+8Ue0bf+WAGBuuPt6iHp0dtjPo/B026dFuxRBSdGU9NxT34gIkGEAiADfT75sh0uv/S1uvP9fWJO4DqviYnBtq78KOS/+9yV8s3g6Hnv1cfHOoChM+gdDUnaSiIjhqJgTGxGjBWFOCSDGlg46X4WIgJgDycnwrF2NTm++hBceuxfPP34vnn1CoaefvBdPP3k/nnryfsGff/he/PfpxzFrQD/UZ2YJIIYjYgiIyVodjZqMVHH+yp74rSiM34RvBvfGJ+++hDbPtsaDD96GVnddj9b//gfefugedHrhKYzt2QU7Vi6EN3mHAEEoOiduwRw8d08rocvw4b3x5eft8MYLj+KJ+1vh/lbX48E7bsLzj96H9159DjNHDYFjYyzK7GmozLILQOZobi4K1m3C1B498fHzz6HN/ffgiX+3wiO3/wtP3XM7XnviIYzo/TmmjRyIdm+1wQut78LkXp+fmhExHduhct5sOdbFNH0cImKMnXoKj6dtSQTGECfHkg4cXbfDhvU7bVi3MxnrE5IxbeF8PP3aS4j65TmIuug8XH799Zg0Z5E444Uc0rHfLsRVN92IC3//p8DWJNrO0+mLgbjo91eLbULE3/qwE5au3Y607GJkeHZjxbqdeO/TL/HrK/6KqPMvEI4LRZJkFuxD515D8LurbxBROY+8+CpseXuEQ03nNtD5C9+t2C62OUVF/UwcFLw+Pkuc0WLLKxUOM21L+ttt/8bXY74BgTauwhoUV9Rh7tK1uLP10wJMueb/2TsL6CjOt4svFChSKEVLqVBo0SRoCIQAQYJbcHctbsXd3d1CgOAhIQSJB+K22bg7UbS0QKnc79xnmCRAoC7/r3DOe2azu5ksO+/I85v73KtvJCDFwT0A/iEJ8PCPxKkL19B3+ESUqvCZgKM+wybkqmLY2vBxzQbQlCgPs56D4OwZjLjUe3LH3d0/CvOWb8HndY2gebcCOpgPewtinnt9UBHjH52ONbuOYdridZizfDNmLl4v21hdjp66AHrN2qNeUzNpjVuz9RD8wxKRmPUQjrf8Ub+RMRoZ5YGYE3Y3MWP5NkyYuxw9BwwTENO6fTeM+2oOZixYiyVr9skcYYx1UHQmth8+A9Nu/WDYtjN6jxiPWUvXYsWWPVi+eZeoF9qbD4S+cRtRypy4fENADL1swpKf4opbJFp36Y/6Jm3E/FnxgHkLYl4ELAUfY159z68DMccvOWH6kvUyTzhHOKYtXItpC9dj9NRFIByp3aSttDYyJYnHE86Vs3Y3fhHEjJ4yC3YuXuIBxfamwKhMrNh8BG27D4dJx4EYNnEBlmzYh+WbDspy7PSlkrbUqe9ILNu4F04+IUi88wgJOQ/gFhiC9r37ol4zY7Tt2RvmI0Zh4PiJApVX7diFKYuWoNuQEajfqj1adOmFJZt3IyTp7vP46vxKGPXxv0sR80+CGKoA3HTOAlnYnlOsyrsw7NQUAyYNxKg5o0XNwhShYpWK4v3PyoiqgPCCF9QEMTtP7FQubItqpODmRStbSKg+4IUsL5Yr1q4sBrjVGn8uihu2tzgFuGDBhoXoMbwnTHu1yVXE1G5eFwMmDMKQSUNEAUO5urvWHbUNa8tdxPLVygskYZHO4p+qhxbdWogSpmWPlnJBzsL/hJ2lKBXUu6kELCye+XkF4JTRoOeIHuDFMl9TL565vKVzx5cNaggoYGvSZTeb/2kQ88tqGEWOnr+wUxUx9IhhXCrTgopULopqjWqg4+CuGD5jFEbOHiVQi3CDxZBBawNsOrQFPlF+UpT4RHlj4cYFAkNKVH4XFWuUR+2mNdGpfwdMmD0GY6ePRM/BXVG6Skm8875G1DGHTu+HNiYQVnan0GNoDwwaPwjV9KtJocL516yTkcS4DpoyENsst8p2mbv+a3ykX1WAYVWDj1GiakmBgZwPBIMslhgtzQKO6+gypMtzWKSASBVMuoe4YOaKaUrrQkmNKGL4/7/qa49NRzdi5Z4VYurM+aJCGO4HLBS5PHQ2whkQAAAgAElEQVT+ID6q9ZEUhFRruQa6PjfgDH8LYvJBvvzz7O3jfw4o/RMghsdbKuiYLkZ/FO7PwyYPw5SFUzBm5hi0MTeV14p/+K4cWwhtCDh4HKdykco4ppYRrPI4z+M/zbypdKEypnqDagI5mGJ24NwBOUdR5bho8yJRafL9NGEnuNFvpY8O/c0E3M9eMwfOwS6iiOGxhJ+NNxS4HkIYQnuu37RXa8xb97X8/UIfaNC4XSPsObVbfK4ITtheyeMDP/Neqz3yuqZcYRh1MYZfXCDsPa8pIKaIBv3HD4BLkCv2n9on5zQmKRHgnrx8UlSBqiKGgJgeMWU+KyUeMX99a9KLMOYfV8TkAzHfBwfjkZ8fkh0ccGjpQqyfMRlrZk3G6tmTsWLWJCyePRELZ03CyMHmaG3cAC30agqIubh9Kx7rQnA3MABzhg9GJ6OG2DR7KnS21rijVdqbYt0dcHD5Agxvb4JBrZth9sA+2DxrKnYvnIttc6Zi8/RJGNXRFAPNWmDd/KkItLsgZrnZ/j5wsbJAS70vBLoMNDfDuL7dsGTMcFGt7F4wDxvnzMCgLu1h2kQfY3p3w5nd2xHvfQvZIUECYx6Eh2L/kiUY3Lo1ujVsiAndumHzzJk4sHwJdi9ZgEVfjcPQXp0xarC5QKeOHY1FDURvnH9OEeP/3LhXXfoi4cxJ2P4bQQyTklRFjOIV8wQ0xJU0ISYjZd2Fb0Q0lqxfh8/164hsrtIXn2Hh+vUCRqi4SMyiWe9pVG+gjzJVPhYQE51yXxQkbE0qV7Um2B7UuGVHOHhoxVCTXitsFeCd6rOX3aWNQFOoMDTvlcHh0/YIjr2Ho+euonmHLtJiVNvQWGT//Fz8fDTSZEuCAkXeg0nnXuIrQsVMbMYD9BgyAppSZVHXqAV2HrKSlCaaevLvjZo8VxQvpSt/jpETZiM66c4Lg2Dl0KlLCqwp/J7422ij0+RzT/l6hbRasS2J3jI+2hgkpj+Uu+40/XXyDMHsJRvRoedQKRzFQ+I/roihEohJMfTG8A5NhGdwHPwjU+Gli8ctbaw8d8NTh3W7juWCmOET5sH6mgdi0gi57sHR3QcGDZujkaEpTtk6S2uSNvEePEJTJf1mwYp10GvUHH0GjsClK87wD0mCjy4V2qhsRCV9gytuQeg5ZAJqNWmBfqMm4oDVRQRGJ0kxHZaUIXN52aadMo+atOssbSZsP2FrV2TyD7B3jYRp1wFo2Kotth44JSqw2NtPnytiTqBpu24YOnE6bJ383ipiflHJ9etAjC4xG76RKfCLyBucOzeD4rDjyHn0HDwJ+s06oufACThgeQlhCZmISbsjHjFsTepg3h9b95+UfZ4G4Tze0EvItGsPjPxqBi47eYifC49hFuedBMI0btUT42askPYkGm/zNQ57d60o3AhiOI+2HTolbUmJdx7iVnA4Ovbtj7pGzWHYzgzjZs3FuWs3xOA86d4DeEVEYefxU+jYfxiqNzRCn9ET4ewf9VzxpsKX/Mt/D4ix8lDMev8pRYxfrA92ntgudwYZ2dymT1vsO7MvN36XdyTP3ziP/mP7S0FdsUZFLN+6HAExfqIgEYNSqhXe0UgxzqKXEnJVgs7WHwIdmq3yQnP03HFwD/UA++bpEePg54Q9p/bmesSMmztBClgWsd7h3uIFw975Ok3q5t715J1DXrxTOk4oxPYXqlp495GKidJVS2HC3HHSY08zWKof+HkYT03VDhOReDeUUdVUbagQRlFJRMJd6wr9ZvXkYnzwuEGwc7cVX5JXFTEvqxf+uqLq93rE/FoIw/cVVBQ7Bzuh9zhzFKn8Dgg5pi2fiSte18Qrhp4HvtH+2HBgE+q10IOmbCF0HdJdWnL4GtOoFq6fLxCF275qnSqyXa642SAyJVSGk8919BrSDWWrvidj6vzJCIjyh1+kH1wCXOAW5IbeI3qjeKXiaNymMTYe2iiqG/cwN3hFe4sPw4xVMwXEUKFTuMI7ouqi6TP9ZGzcLokK6pjNMSnYWMixwKJyhwUOlTCEkVSFnb5+Ci26NZftzlhqO6/LynZ/nhTFeaKCFxaGvNvOOcPnOA9pKly0XFGU+bgMth3Zpvjc5LDt7+8DMWE5vzU16e+bwwXNr7fP/XXHjF/6bv9uEMNzCfdfKl4IUwhKD184lHucD00OxQXHc9KqSHBL03S2GflH+8q+tm7fWrxbuZgCSt/XYOTMkRJtz2M4bwrwXDNt8RQUq1BEjjlMMiP4ITT1DPeQxzxXUA3D1CQCIe63PBZ4RnmJGsYv3h/la1ZQFHglNaKio4KS50QCnXMOZ3MVPUxJI1xWzzUEJyFJwaJm4edhSyYhDhUx8zctlmPmdZ8bSmpSUQXEBMQEiAKGbbilq5aWvztp3iS4BDhJWxK9tMLTdNhvtQvvV3sPhctrsHbvqv+WR8zzNCIa6kqyUECAGN+mu7ogxcUJia5OiHdzQrS7I3TOV+FsfQZzJ4+BmXEjUZNsnj8HMU6O0pp0LygQs4cNEhCzYeY0aG0u4m5IEDLCAuB27iT6t2iKng3qYcPoUfDYux/3HF0AT3/cc7uJBKfr2LtiPnq2MUTvDsY4tW0Dcny9kRXgg5vWp9GqQS0ZXVs2wZYZUxB2/rz4u3zrH4hkV1fsW7EEXVo2hWnDulgzexqCHa4iJzgQt7X+8Lh8EeZtW6FT/fqYN2gwruzYjVQXd/GPeRCiQ4jTdSycMRHt2hqhftPaaN29BTavWSi+Mf8YiCnAPyYPxBx9rQom/wt/myKGIIYAJm88E8hBqMDCJTo1C7uPWaJx65bQFC2E0lXKY/jk8YhISZECmWklKdnAtgMn8HHtmni3XEUBHSGxmeA6ps1dgcqf1sEHH9aQNh5Cjtt3noixJtt96N8QEJ6Gr5evV0hwiTJYsfkQfMMypEgfMmGKABW2Jy3bsEPWqcbRDh03B4VLV8THtepi6frtAlsYi83P3XOwAmLqNX0RxOhiMmBo0hGaQu+hpn4zLF+3E95B0fAJVAYfc1hdcpAIXPrYUMlz1s5ZoADTearVaSJgqbpeUyxYvglWF6/DxTMUfrpESV1iMhT//4RR/P+pxRyLenXktin9I61JryoX4pn083y8qmDI/36lFerN73m10Ob/m9HejP2mmSm3PU14ua1ohkyVVL/hk1G/mRnMegyDxdnrCI/NUiBXxn24eQWiXn0jNDBshZM2TghOeoi4nJ8kwtrVLwJL1myFfoNmGDNhOtw8tYhPe4iYlG8Rm/oEobH3ceKCIwaNno4ufYfi4MkLCIxMFD8RmrvS5yPtwVP4RSag78gJqG1ogplLVsM/KhlU08Sl/gx7p3C06zYIjVu1w46DpxGX9lRGYHgWNu49iWbtuytJPC+BGAXE/fbWJHVbxGcAHG/+vvNvn19+/K/0iFH3A7VlT2K/v0N8zmMo0fWMr2dC0UN4BMZh+vx1aGzSDe26DsOaLccQlfRAgaG378LK5ioGjhyLDj0GYMtuSySkfYv41EcyJ5av34rWXbpj+KTpAmJuP/xJVHQjJy8GIYz50Kk4Ye0ix0Dut/QWSv8GYiDu5BOGCbOXoXHrrhg3c5Ekx7E9ySskGt0HDYde81YwHz5G/GGolonLvC8jPucbaOPTMG3JKtRp1god+g2FhbXj/wyI2eOspCaxNSn6brwUxExMkvEXtyYxmrnXqB6iWOGFJS9UeRFJs1R18AKZPi3V9WvIheKAcQNgf9MeQXEB2HV8h3LRWkSDll1bwOrKCbmAjMtW0iRYsBK8sKWF0vGuw3rgjON5hKVGIiI9BsFJYTh34yKq1v5EXp+1fA7CUyIRkhiG0IQwxKXHwUPriZoNa8r5q0SFEhgweoAU6tJylMOYVQUiEMyYdDcRYFS3WV3wIpf99vJZMiJx5qqVKCT4OdimQsUGi2gW2CqE4TIXxJTQYNDY54oYRny/4hHzIrxQlRXq8pcKod/y+m8BMQXBF7W9paDX1Ofyfx6a9bLtx8LWQgAbI73ZukZwRsjCwXYbtt5E3Y7Bim2r8FGtj1GlZlUs3rBUvnfPUE8sWDcPhT9QCp/R00bA0esa4jKikJAVg+TsWCRmxcDW4QJq6H0qqUQDx/QXBRTnQFxWAiLSojBs8gi8V+U9mPYwlbvF3F70ZEl6mCRqlNmr5korG4urzxp8Jq1H9ALituX25N1pmnLyTrbajrDlyGYBRSpcIahj6wNbFdjOxCQtgqT884Lr4c8p3yTL4PxjOxthD/1sCGH4u2a9zeDg4yAQsaDWJHWd+b/vvMcvg5FXf1bnV0FLgpijvym++uX1/0owoHphvFW6FAgw87bnr/w+/4Hv8e8GMWw1GvTVIBR6vxCq1qkKGxcbOcfQdJ3G3PQDozG7taM1GrVsIIrEroM645LzRURnRGL93rUoXqmYQBbCHKplCFm4P9G0neca+1t2qN9SX1on2QZ57vo5MXrnenk+u+51PTe+euXO1c/Ve/R1iUZUdqyoVsrXrCR/o0iFYqLqJIDhcYL+VYl342Rp63oJpj1aCbQ1MjMEgTKNx8OTdHID4KrHFWlhInBiW5Kd51X5Gzx+1mlaT0DQkInDEBQbjOj0WNwKuoXWXUxlfbUb18KmfesQkhCE+MxoBMb6Y7/VHpT9tAyKln/nLwIxf11qUoGg4JUinsoOdQS+oPJQk5LygxgmD8n7tSECWGh8ezckGHG+HrDYsQmdWxuhrXFDLJoyHp62F/EkOkpak2jWS0VM52aNsGnWdIRcthVVSriHC7YsnoO2db/EaLM28D19CgQoPwTq8JNfsMRIP4oIQYy3G8YP6oXWhvWwctoEaW1K9feGy4XTaNtYH831a2LKsAG4dcISP/gHA0Gh+N4nEN8G6BDrcQsj+/RAq4Z6mD95AjxtLyFHq0WirzeWzZmO9iZN0de0Fez3H8DDIB0eB4bgqS4c3+rCcCdYJ+//avgAGBvWQ7dupti3frkYA6vfzwvfc66hrqpW+Z3LV7bTi9tG+ZvqdtMi4YyVKGLuWv4PgBgWzcnZSrFs7+qJhiatoXmnEIqUfQ9m5l0REBWGuIxMhCdmKDHB2RDVyad1a+ea9TIGmm1Acxatx6dfNkLt+i2xcsPe5+kmT5GS9US5U337WxDm7D9+AZqixaEpUQaTv14jIIYR0+t275dY7HcrfCiqGaYxxaY9wjU3LVp36geN5l0YNDORokogzEsgpq6h8QuKGLYP0fCVIIaAqEOPQRg7+WuM+0oZfDx83AwMGDUFBkZtodEUE/Nemn7Sg4JJK+2701CLZsPFoHmnDAoVL49mrbtj1vy1sDh7FbcCogXEhCfmSHHI1gcFxvy3QQy/A4IYxoFT6cK4YaZX3bgVKC1s9QzboJFJJxyxskdgxG0kZXyHlOzvkJhxHw5u3ooixqiNYtab8i1SHgLJDyAKm6VrtwmoGTlmMhzd/RCddE+UMDEpj5Gc9ZNEWXPuhMbflnkblZINjojkTFARQxjDMXDcFHzZsDnGz14It4AIxKZ9h8R04LJDKNp3H4ymph0kFSsx4wdwaKPuYMt+KzQ36/U8vlox8hXgRlNWjsy3IOZFkPQqqMs1oX0JxIixbdYjxD8fIQnZWLxmN9p3HyotSZPnrEFo7F2k3vkBafeeCeBjatLLICYu5RvEpTyACmLoEXP9pp9E0lNhQwhj0LwLVm+zEK8YmvaynY2qGPoLhSfdhzY2A3NXbBEQ03v4VxJ/TfWde2AkuvQfidqGrTB1wSq4B0Yj5a4SmZ724EfcfvQzEu8+xsYDx9Cqex+Y9R2MvScv/b8AMWqx9Wde2Kvr5PLAuX2oVKu8SL5ZaPMOIovYwNhABMUFyZKPOabMm4LK1SujQasG2HF0u1wgCogprpGL26WbF4u/CuXZNBmkRJuDrUidh3TDOxWLoW1fM1jan0J4WhR0yeHQJobi8k17fFL3M7kInbd6ARLvJCE2Mx6RKZGISo2Cm58bajeuIyCmQYuG2H9ivyQosQhm1KhqKsvPTh8bysppfnjC9oQAG1Uyvm7PGun9p6cNPQR4AU/oxM+oFsdcvhnE5Bn2EmDk3y75v1c+zv/aH338d4MYfl4XnbO0fFEpRUULVSWB8UGiZPKLCZDHXLKQ8NB5oWGrxjIP+o0eIBCMXgcsnui1Q5Cz/dBmKSyS7sQJiIlJDQNHaFwgGpsYiFKpS79OuOF9Q9bJOUAg13eUosYy7mQs25Tbi+1AhDEskGiESU8hFk49hncXNZeqdOJ7+R5u16OXjkqrAO+qsyWC80VVtvAxTTv5f2UbHlVdapGnzg0VxGQ8zRCFFUENjZ/pGUEAQ8CnFpi6BCX5KTgpRJKf8nvE5K6vwOL7ZTDy6s8vz7P8P78FMX/ufvdH99t/8+//3SCGbaFs5SFU7TqwK0ISQ3JTgghJ+DP3G7aiLt+0FO9VLoVy1cpiz4ldcj7hsYRKGe6fNPn1jvSSfVvdv7l/Ovk5iKKGUFbPuK60OBLyEMQQylNpyde4n6/fvwE8flGxpksNQ2CSDq4ht1DV4FPZl2mqSzhLoCvAPjVUIAyhEFPehn41WFQ7n9SrinU7VwmEUWHM2t2rpRWS4LfL0O7QJocIiLnh64DahnWlfWrwhKHQxuvkfMdz3enLp/G5ntJa1b6XKc7aWyEqLQw+EV7Ye3I33v+ktPy9v6Y16d8PYggcVEXME/8APPUPwBPfQAEm9wMDcdvPG+4Xz4jqxKhBLYwbOQDONmeRHRmCb8JD8TQ0DOlenopZr7Ehtn49G2FXriAnXAefG3YY07cr2tWvLWlK0a4OyAnwR6aXF+56eeN+cACydP5I0npj+7rF6N3VFBMH9MSVA3uQoQuE++ULaG/UAMYNauPotg2Id3HGU09//OAVgB+9A4GoeNyLisCahXPRoVUzTBw5GNdOWQqIifPxQr+endC8eQOsnjsTYY4OeBYZgx9DIvEsOFxgzPcR0XgaFYMDSxdjQGsTDOvYDsdWLn0eX63EVv//BzFZP4GRoy8WO7/uZ0UR8wxx6c9HhmJcyaKZPgg0MSUEYUqScadOsHZyQGxWOuKz74oxZkTifUQkfIdNu4/hkzq1RBFDA92Q2Gwpfmcu3IAKn+ihhl4LrNt+TCAK42Y5qGzhYDTsbouzyt8pVQ4jpyyEX3i6FElHz9ugdbdeAmg+rmkAr+AYATj0D6llYIKipSvBfNAwRKfmvKCIMR8yBpoSH6BOY0URE5/+WP7mdfcgBbAUKSMeMUxzIkhRxzslK6JI6Q/FG4Y+MDQZplcMTT9p8suWKhr2si1J0pYKEci8K+tiHDfXV/HTehg56WvwDjoLcRXE5KpgcovN1xXorytUX79N8+Krn6cmvdGs9/Xr+T1zKO93Xve5lfQmFcRIvO+9p6CZs09IPJau3ynbpKFxR6zafAA+IYkCshg5TMVMQvo9XHW8ibr6htBvbIIT1g4ISnyAqOwfEHb7MVx8w7F07RbUrW+E8VNmw9MvTEAfW9EIS0S9cpvqq0cCX1x9dThhbYdNew5h4ZqNmLtyHRau2yyjTY8+omwgiLnuESiqGoIYm2vBuSBm1+Gzsl4FxGTngpjhU+bisnMeiFGMemnYm7edY7J+EBPll5d536Gybd4qYp4gJvMRYmiIyxbJ52PTvhNo13OItCSNn7Ucjl6RYOIRYW5M6gM5JhHEDBgxBmbd+0uaEtUwBDF8fcm6LWjVuRuGTZwK6+tuCEnMlHYytjjVbGiKWUs2Y5+lrYw9FtbYceQsDlldxpGz9rKkIsa4Q290HTAGh8/Yyudy8ApGe/PBqK7fHIvX7xZ4oyjAnoqyhm15nAv7rC6g+9Ax6DxwOJjApWxztSWJ7Uj5x78jNYmtSbtdXq+IoWkvh6po+H3LF4uT/IXbpsMblAvTMhrx0WAvPSXga3atkRakVdtXYuO+DVi7ey069u2MUh+WxucGn4PP805dLogpqsGB0/sEbPCCmIMXryqIoadImc/LoWmn5th75oAoKngBTGXF6WtnpYAlQJm1fJYoCXh3lJHVvIAmiGlk0khgQM9BPeHs4yKvKesOQXCqVqKGeUHOC+cvGn2BwmULY+hXQyUSlGCIcGXU9BEiia/e6HNYXTsJXYpW2lLYmpL/OykIxDABg8lCTCLS3SGMUWM+X/xu/6rC6+8GMfSIcQi8oYAtgpiyiiKGd5FX7FiJ1bvXSksSk6/W7FyHjfs2iSKGLWo9hvSSYopKquVblwqkqG7wCY6dP4C4jAgZkak6RKWFICY1BAkZ0ejS1wzvlCmEzn07wu6WPSIzYgXWUTHFgqVUpRJo2akFLM4fFfk/5xdBDJdsN6tSt4oY9FLJwiQwthpxye3K7cvHrlonTFowXpnvpTWi/uIcorKFptNMWKLvA1sm2EahAhN1yb/Fx3w/X1+5a6X8DtudmJTUsE0j2LjZStudxK9nKZ+Pf4O/l2vSqz7+XwYxBX72v2df+Kv2sf/aev9uEMPzyhdNaogxb7MOzbB4w2Ks3rEay7Ysk8Fzzvq96+V5KuOKvF9YgMi2g5tEZaKCGHqZsSWWKjbukwSmPNfwMaPlqXzjuYT+LofOH0b83QQZbIe94nFV2f+LM756hcRJ65JDEZIWjrCMSPjE+KNs9fLynp4jeonajfu7CntUQ3f+vR3Htor6hi1UnfuaKXA5PVKULD2HdZdjCc2FV+xaLTcjqLpx9HcGfdAIpodMHio3CniTg5BIG68Vrxz6THGdfUaZwzP0loAYnmdpcE7gu2LnUjmm5T9nvem6gOctZajnrIKWr3/PH/WIURUbf8aSIOZlGPNNUADuBgcg4Io1vhpkDmODWtKWZHV4N8K9XKX1hyCGZr0EMbkeMbOmQ2drg6zgQNw4dwLG9arD6ItPROlyfs822B7YA+tdO2C7ayfs9u+C3ZF9OLV7M+ZOGYVO7YzQ36wlLNasQGqgL1xszooahh4w105ZgHHVzzwUEPOzb7DEUjMhae/m1ehmZoKhg3rA5vB+fKMNRoLXLTRrXAfNjOrj2M4tSPH1ERXME18tfgwOxffaEDzwDwBhk83OHZhi3g1D2rXE/vlz8a1OgTD8br//s1Qw+ddTkCLmDa+rrUl/jSLmTwYx9F/RxedIsVGyUnVoSlWQ1oudx6xEjh91OxscsbfvCvxITP9JWpMIYvJSkxQwMm3eWlT8VB/V6jQTT5eUnGcCYwhGRMGS8VjuODP+WlO4hPytqQvWwT8iQ0CMb0Q8ZixeIT4xpSt/IkCErT89B41DibKfoF6jltiw4wCiku8gMeOJMjK/Aw12CVIYT81WEr4WFn8HV10DUKcxTRNLS1oSE5zo+zJt3kpRZUyau1Q8br6asxQcE2YswsxFa3Dpxi2EJ2aJioMtNZ7aaJy0vi5Gv32GjAfblAhhJB3q3QqoVE0PA8ZMh19EmoAYmgtLjHP6Y8RkPs0bGc8Qk/HsuXHn60GGohh4PUBRQczKU94473Mboek/SNsO24EIQFj4M7paia9+/XpeBgK/7efXf35RiNBvI+s7JN19LP5BNGxetXkfTMx6iX/QuOmL4R+WDCqJ2NbFwpnfdXzaXVx39kQdvSYSYW1hfQOBCfcRkfkU4elPcDM4Fis2bEO9hk0xeuJUaWOiJwjVLPHpz0QRw/lG6LN47VZ0HzAMpl17waRDNzRq2RYGLUzRuktPea5O4+bgmDR7EVhgs70pLu1H2N7QSmuSYet2orBiEhNHUGQmNu07JfvH0MlzcMnZT7anso0fiTcOH6uKj5cBjPrzy9/zfwvEcD4+nzu5kPIJotIfimFyVNo9RKTcgdVlJ7Tu2ld8hAhrz1/1BI27mXhE9R0hKRO2XqeI4XxiCyNbk0ZNnilmvYygPnb+BvSMOojxb7N25jDtOkiMgAl8mNhEbyAO/tysXU/oNzcT8MKkOAIiKmI69B4iipjV2w8jMuVhroeQmKCnP0XCnSc4fP4yegwbi/Z9BmHbkTP/syCGF1hqa9JfDWK2HtukeHiUVJQA0tNevQLoBcOUIi4rf1kZn9T7BO9VKSMXkOxlJzAhiNltuVPp2S+qgaWNhVwMU63Ai2JevMoFcmY0Rs0Ziw9qVBDTwn1nD0qxygtjKgUY80slgQpiCF/ic+IFwtCslyBGr6meeMQMHjcEwbHB8hr/BtuS2EbDIooXzDTW7Tu6r9zxpKEv1RURaWE4YXsc7cxNxWOA5sP0B2FxHpToL49ZrKvDLcgFekZ15f9FbxxbV1uEpodBlxWK4GwOnQxdNk0NlQvYv7qI+6tBTEGf/9JNGzGyZNHAO8gVv6yED2t/hMq1qshjJl5xVPi8Eip/WQWa0krSVqf+XaS9gIqY+Wu/lvn1Wb0qAmKib4ci/4hNC0Xc7Uh0Mm+HoqULwcy8vSRqsW2Ng0CGIOb9j0qjVZeWAmKotlKVLJxrBDGVa1dArWZfYv2BNbJd6f3C7cul+jgsTYdD5/fjwzqVZNtSAcbCjZCEfhEscmjmS8BCeMK5y2KP85hzSy363HXuYgDMIouAihBo7JxxuOh8CdpE3YvGvM/3g78NxGTrcNRtD3a5r8b1eDtE3IuSfSMmKwQxWcGIyg5BZHbYG8DuW5hS0L7w//G5vxvEMGqaLaE8njAliecXnlsqV6+ISp9XkFGhWnnxWCpevlguMNlyYKP4rlDRSEUMz1H0llHVjNxPuX9yUKXGv8OWIO6Xhy8cEcPsaIGikWKWK4qY4hoByt6RPnIzgKpNghivaD/xdKECkPs0lXLquYzHAfW4wOfo49JvTB85L1XT+xh2LpdEwcIlU+B4zCTUveZ9HZFZMaKIoUl9XeN6ApiGThkmSlOqgXjTgeNW8C30HNYTpaqUwOf1P5Pjpy4xSFRBbE1imyc9YlTIrMKY/wyI0WrxXVCQjMdarcRO3wsJgq+9tZj1djJpjJ6mzWG1cwuib7mKWiUrJAj0WXkSHIJsb+9XQO5ajW8AACAASURBVAyVNLZHD6CV/pdorfcl+rYxxsC2rWQMMm2J/q1ayBjQpgUGdGglSUhGjWqii3Ej7Fs8DylsTbI5i2Z6X6BdI304WVnim6Ag/OyvAwJCZMl46oehITiyeS16tDfBwH5dBfQ89Q5A1BV78Y1padQA5w7uRZq/Px7rwvCjfyh+DAoREENgk+7vDZsjeyU1qW8XU+xbuQCP/mkQI1DGF99rlZF0xhJ2UyfhXwFi8oq8n557wyhqGBbLSTk/Qhd3F3NXbEPJSl9AU6yiJNis3XEMvmGpSLrzTNpLku5+i+ScR3InOjlL8YjJVcRMni+KGKpeZixYL4qYclXrYuLM5fJ+AhgqYViwcARGpWHJxl3QaEqiUOnKYDGji86SJCK2jmzeexQVq32JQu99IFHUNtdvKT4vhUujfdcB4M9sO1GVNizK+gydhEKlKkOvaTscsLBGcuZT8YrQRqQqiphCpSS+mqlOTp7BcPELhat/mAwqgViEWzt44MhZO5yydURQTJq0R9wMipLCi+a9NAdl0pK9k4+Y+67dflCUMlTEaIqWk7v2p2xcpVAk3GKxSehS0MgtRNWCtMDl6wEKFVGWjpH4/SBG9X4paJn3d9W58zI4UH5Wimk1UejFpdKWpfjEPJT2oE17jqBT78Fo2roLhk+cDXsXf2mJo6Ey/YXYviRmval34ODqi7r6RtBv1ApM06EiJjLrmcAYz9BErNqyKxfEuHgFytwhiFG9XPzDUiUyvV33PgJdhk6YIuoIqmI27z2MQ1bncZSKhf5D0cDYFF/NXQgnryCBhrEpP+CyQzDadRuA3wZiCN0U8KZuXxW8vLzk96f6wRS0LPj7ztsuv+X1f94j5nWfW1VOca48ERBLCKNLuA07N28MHDsNdZu2Rpf+o7H/5GVpHeIxSwUx9B1Kyn6A05ftX2lNoiqGc0oBMT2fgxgPgaunbVzRoHkn1GrQGkPGzsaClTuwdN1eLNmwB/NXbcPCtTvl8cqtByUxadG6XVi/+yhsnG5JO9tNbQSYuMXWpNU7DiIimQDx6fNj68+ypNfMsQt26EUQY95fErwSMn9GQiaeDz7+5fFbtvMffW9M9nc45XEOO/MpYmLuxstd/Pwg5k0XWb/utReLK/XijUsBMYyOLqVB6+6t0WdkHwyeMBjsXx86abgs+Zg+HepgusWhs4fkInK35W4FxBTRiH8HPTFic+IEtKheInyOF7UVvqgI4y4tsP/MQSlWCWL42nnHCwqIKa0oYgoCMfUM60nryvDxIxAeHyGqGSlu892Z54U4fWs27d+EIh8UkQv5LQc2wz/KHzOXzRSoxOjkeWvmSnFO1QSBDJcqhOGSIIYeMywY+o8dKCoHXqjrssKfgxgFyBDMqCCGy7+yWPs1IObNBfbLqqpXPy+/T3Ww0KD3Ce8Ks3Ch4oMJV5wDnBfqUOfE8CkjwTFq2his270Bbv4u8A3zxvJNi8Xr4dO6H8LiwsFcCBOTHg6OuPRwJKRFolPP9iha+h2069Ue5x2tEZYeIyM6K/4VEMPWAPo10MiS/j+zVkxD5ZrlUbdZTVDhxSIl/1BhDJfXvK+g8+CO0hrA1BSab9Lkky1N/H/WaFhDDIIJetQ77lTecPDO+3nHc+g2qBtoGM05RgPhpZuXgiacnO8s+AgXObeVoajD/hiIeXFb5d9/8x4r245xs78NxLy47r9yDr9d97/ru/67Qczy7csEjhB41mteTwzXx80Yg3HTRmPMlJEyRk0ZiZGTh2PYxCEYPmkoRk0dDmuHc5JGpIIYtuhYWB/NBTEEJASyHGxXEhBTVknxI4jhOYaD+yNTi/KDGCXhTd1XI8UzhucpHvu/WjgZrlo32a/Vc5m65LqoYOG+z5sVZauWwZL1ixF3OxorNi7FJ7WrSnvsV/O/ktZEvp+/+7Iihu2/PN/lH0fOH4Fh2yZyTm5k2ggHz+yXwf83jYjZmsTzVN6+T6WeMgrax/Kfo37bY0U5k5IaCttly6GdtQx3T53HM38f/BwUAAQGyPJZcACe6ALwONhfxp+hfFHWocVT7YtD4EuwVoltDg8Vs1qdkz22rVmEHu2N0cGkEbYum48oZ0c8CFaioalEoYfMY61OQMzXwwajq1EjbJ6peMSk+/vC7sgBtNarhbYGdTBj6ECsnT0NW+d9LWPT3NnYMHs6Ns2dCRr/rlsyF8uXzMb2ZQvgYnEsF8TQhLe9QV157lFAIH4M0CkQxi8YP+nC5PMcXb8ajNQmiLmybw9+9ghA7EVb+b0WDevh/AEFxDwJDgMCwvBz4HMQExqMrNAA2J46jDHDe6NTVxPsXEuz3j9REVOQ+qWg53IVMSqA8cb3WmWoIObe8b8ivvo3KmLUYppLxaT3mcRBU7VBJcqOwxfxSW0jaN75AB9+0QgL1+yWpBIWE2n3KZ9/JGkzvPtM+JEfxFARM3ryfITG5Yh6ZOaiVaj4WR1Ri3Q0HyJxxCl3HkvLCVNpotPvw97dHwPGTIXmnfdQpOxHkopDVQRVDSzET9veQJtu5tAULYnSlT8TA+CqNQxQtPSHGDdlHoLCk0Q9QdWDjIxH6D1kIoqU/ggGRu2x9/AFATG3c34Qj5rm7bqLIoYtR2yjYstKYs53iEy9K4ag/P/RH2TtzkPoNXS8eH/4RSSBReGMxWvkuUXrdkgClCQmpT9EdMpdATM2Dh6SmKQp/L58h1sPnMn9buOzfnwtjFEL9TcvX1fAKq1p/ysght+jlc119B46Fg2M26L/yIk4cfGasg0zHsmS6gVueypi2JpE3xf9+sYwMDTFCVtXBKc8QnTOj9Ke5BORjDXb9kC/cTOM/Wo63H21ikly+lMx6/UPzcCeoxdFedOyY3csXrsZ5686wiMoDCFxKQiNT0Vseg4iE29jxISpqN+8NSbOmv8KiKE30GtBTLueeFUR8xbE/DYY8CqIoRLmuoc/JsxZJNHiLTqag+1JPqEpAmt4zHoRxBSsiHkZxEhqkvNN2W/pN2XYsjtqNzTFmq1H4OIdAS9tgni9OHiFiAeRmvbFdkMbR29cdvGR1C0a8nrqotCx70DUM2qFdbsOIjL1vrQkKcfWl0HM6P83IObPUcOwAH+xAFAv2rjcYblNDEw1zyEIzQ2v3roK+5vXXhlWdqdx6MwRWFy0gJOvk/iA5IKYYhrpx+cFr3r3Ub1o5XO/BGIk9re0BrNXzJaL0pcVMb8GxMjFeEakGDQ2bN1Qiu2eg7vD0sZSimd6eDQybSDmj/y/szWJxTkf/3oQkwdj/j+DGBY3NKkcM3us+L6UqFIKOy1345rHDdi52+Oy2xVc93SAg48TnP1c5ecTNqdw5PwxeRwSr5P0ozU7VqJIWQ2q6X0ES+sj0pakQpjXgZizfzKIUbcv4Yx/nK9I+zVFleSs9fvXYcnWJRJHy8hcxmVLUZQVJYoYzilCGEIZGhdTTUVoSVVYx34dJR2Jd7E51wlgCCFfBjG5cEttSVKXL+2Xyn76MjB78/7L/5sy3oKYl49zb39+8bj/8vfxd4OYDQc34EvDL1CicgmYD+8FO3c7OHk7wMnzBhxuXZPh6HUDDp7XceHaOVhaH4fFhcO4Gegi/isqiKEy5A+DmBKKIua1IKbkm0EM93ceJ85eOyvHgULvadCsTRP46DzRuXcHlChXDE3bNJFoap4PeQ4MSQ0Ts3N6z1BxM2jSELmZkR/C8DFN5heuX4hP9T6VtLjW3VtK+hyNijlW7V4Bqvvy9n31GFDw9v5t8EVtUeLy3wtiGNv8JCIUqV43YbFpNQb3aI+OLRph+phB8Llmi9uBfqJAuR8WgpdBzLzhQwTEbJk1Q8x6MwP94XjqOLo0bSgwZsvCubhpfRYhTg4ytNevwd/eFgF2NvC7agu3q9awv2QFV+sziHJ0QFqAryQ1dWzWEO3068Dx6GE88PXHM98g/OgbhB+8A/FMGwImNh1Ztwrm7Vti6IDuuH7wAOATjERbe/Ro2ggm9evi0Lo1iLt1C09CwvFjYJj8HpU834QGIzssCOcO7cSQvp3RuaMxdq2c/+cqYgqCLgU9978MYnhnWRuTgz0WtmjUsgc0hctCU7wSBo6dhYs3vKVViYaVbFmiOoTRvzQ+pbIlKeNnadeoVq8uSlWqgrHTFkp6EGOHpy9cgsrVv4Tm3dKortcIq7fuluI3Mes+om7fgX9UIlZt34fqBkbQvFcR+s3bwScsSSAMlRH0CPEIisDspasExGg0xSXtiBCmloExtuyxkGSdhNvfCIRhCxJhjPngCShapipqN2yFdVuOCIhJvP1YklPGTJ2H96vUgKZoWbTu3Afu/hFIufdEQAshDKELIUzDlh1QuMyHcqfbOzRe2iPYGqEpWV6eW7PtAEJj05H0/HPys7LdZvCYGSCIqVqzicTsUg3D7zc6ne1JT//TihganxK8jZk6F01NO6Gj+SDsOHRCCmImTNEXhuomghh+n9JukvkQTjf9pS2JRsunLrtBl/otYu/8JDCGEcdrd+yFQZPmGDd5Bm76BUurSmLG96KIcfOJE6VDA+P2GDJuMuxcGIudjbiMO+A85KCSggCn77Ax0DMy+VUgholKua1JAmK+VlqTclvP3oKYPwJimJDEth8eHwxatEXdpi0xd8UmASOEwhyEML8HxDA1ycbBTeYYoUvztuao27gtVmw8CB9dsgBmGkvzMzBZicbhuvgsnLZzFcXejiOnwbbJ2Mw7El/dofcA1DVqgbU7DwiIYcuU4ruVH8TYotew/00QcyXqApialF8R88e9YdSi7sULtPwXcIcvHhBvDYIYRkLTzJD96kytyT+YXrNk4zKMmz1B+vqZmsQLRgEx9BB5DmJYhP5uEFPmj4MYFr2MPSbQYcFMyTsVPrwDywKg/9i+InNnUf6yj4gKY96siPnvgJhbYbewbNtykd4XLlcEB84eEvNczgXODZr0xmTEibGyjfNl0Gh57Kzx2H18LwhigqIDsHLLUgExn+tXxUmbo4jPihQljApjClLE5AcxUdl/TBFD0MbtzMJFhW4XXc7jg+rvSzFkPtpc2gcIYVgkHjx9UNJVqAjiECVLeriY9/Ye01u5m15aI5Haqhk0vXDoM6HGVCtKGPUuu7IeWZ8KYNTlWxDzCiR+GRa8/fnFY/ef+X383SDmwLkDYpJNJRnVl1QqxqRHi4okJiUCUcnhiEqNgH+EH3Ye2Y4Zi6dj4ZqvYe9umwti2LLzW0EMz0kchCeiiKG5/G8AMS/uz8p+zX2daU9sv5y3Zp74W73zngbL1i/GJzU/Ah9T0cNzESEM11EQiOE5VPVCyw9kmLo2Yc4EJYmtpAaG7RrJ+YytWWxN4jEt/3lcfVzQ/Pj/BmIeaYPwTXAQ7gX5w/7gXkzu1xMdDPUxrn8P2FoewO2wIGlJIoBRh6qIyfH1xcsgJisoAB7W5zCqe2eY1K6BNTOnItTVEXcjw2Vkh4aIzwzhTlKANy5YHsS2jctxYudmhNrZCfRxPHcKHZs2QFu92nA6dvS1IObw2pXo16E1Rg/pLcAGgaFIveaI8V07o21DfSyaMBaBV+zwOCwCz4LCpC3psS4ED8OCkeTvga1L5qJnO2N079ACO5fNfQtiXi2A8vw78reMUEKv/Pw9LjsHwXzYJMV8tkgJFH6/AqYuXIIdx45jp4Ulthw8jI37D2LLwaPYtP8I9hw7De/gZNAjZuehM/hcTx/vVfoY9PpgQU0D3SnzFiogpngpFC5dHtXqNpCimYoEa8ebUmQZtu0sZreVa+hjxZYD4iPCopyKGBbjTLc5cuYi3q/yOTTvlpXEI6YV9R8yAdecfJCS8QiJ6Y/EB4amnYQxwyfMQ+lKX4o/zcDh02BzzRvu3pESiXze3h2mXfqKh0yV6vriA3Ph+k1ccfOTJJQVW/bBsE1XFCtXFVVrNRAVDNNRGJ/LVJRK1fVQvMKnkp601+Ic7F18cc3dH7aOnli34xAaNO8ATZGyMDDuBOsbTGZ5LMViRMp3iEx7/J8FMVGp38I7JBlffb0MjVuaoVWnXli7fT/8w+PFM4atJYQwBHAKhPtG1EpJmQ/h4O4HgyYtQRBjdcVdQAzNejkIYjbuPgh9w+YYNm4S2JrE+UMz3aTMH+EZmIxO5iPRsIUZps1fCmfvQIEwBDEchDJ+YTFYs2U3zLr3VVqT5iyGs5dO8TFK+1Fak5iaZNgyzyOG/jEEMRt2nxDvkCGT5sLayTfP/0fakt62Jr16LHqdsouKGFUV80RaFgk82PZT36Qdeo8YL0q1hGzuT09FaUbAqQz6Dz1CQs43OHP5OgaMnogOvQZj856Tsg0JZwn3aAxNfyCCmEs33AX00Vi8z9DJ0p7Ud9gUiU6nn1Rs+jcCYNK/+VngirWDF4ZNmgsD4w4YMmEGXPx0CE/OhFtgCNr27IuajY2xcttehNHj6CUQw1aro+cvS7x1+959se3QqeetSP/e1qSoHKU1abvrcvxTIMba9QK6DOkiF3n0gdl2ZBsYOxyaFC5FN1MdfCL8cMnJVrxACDe6D+mOM/Zn8kAML2yLa3DK/rRccKoXvbzw5QUof6Yiplz1Cmje2Vhak9SLW16kXr5pl+sRM33xdCmE1SjTFzxiCmkwYuJwRCSGv7Y1iYUzkzfOXz0rcnFNEQ0++Ph9FKtQDHrGeth6eDOS7iUgNicqt89eBTDq0jXQGXV411Jak/rD1v2y+AfoMiMFlhGY0Svm/7sihsaURy4eRfEPS8j2HTF9FAhcdAmhEllNEBOSGCaJSWNmjEPpj97HuxVKgI/9wn1EEbNkwwIULq0oYo5fPCwQhh4x+UEMPWI69DSV4qVdr7Y452wtfgo0t4zIjJWWpwofl4VxOyMcOrlPfBhis6KhjpnLphfcmpRDpZMOIWlBAmLUFjTP8JvoO9Zc/F0+qP6BpLDQ66XTwI5SWNGzga1J9IMgQGG7A02A6R/D+W9kZiQxuGxN4FyTtJcUXa6fTH6IIybPNHrOCP+dZr2vFuJq0ZW3zGsp413s/1prkkfkLVi7X8Sp6ydxxdsOIbd1ud5R/gl+sPW0xYlrJ2TJlDX6SqneUo5BDjjrfAYXXM/DNdTlPwWG/m4QY+9lj4GTBsqxhKl2bG8NjmV7eqTAGC61MYHiA1XfWF/Melt0MILVZUtEJIdg/a7V4hGjghiq1MSDLF3xB3vBI6asRhLyaNarnmt4PmILoaZsIfFomb9+AW6GeOS2HvF9VMhIa1JxDSYvmgK3YPfc31fXwyWhCtfHY8WRM4fwZYMa0BTW4JMvqqBY6UL4uEZlrN62UvF+YRtTok7ez/hqUcSUUBQxBDG88ZEfwvAxz39Wdqek9VGj0QgM57mMihj6YKlQOe8Y8P+7Nen74GBwfBusxUNtgKQY+Zw/ja+HD0SXJgYY3qUdLLasQWqwL+5E6ZATrlVGaBDuhGlFUUJvmRxfb8wbMUgUMRunT4Xu0iUQxGhv2Ev7kUnN6hjbo4soZG5rAwXE5ISFCtihcsbX7hLGD+qNlkYGmDl8EDxOnoAoak5bwqyhfm5r0kO/AFHEMMKa43FgsKQwHV69HAM6mGLckD5wtDiKn4PDkOPuge2zZ6KXcVMMatca5/fsQIafr3jaCITR6XBH649b505h6qDeaGeoB/P2LbBj8Wwx681NS8pVqvyVUdX5TYELbk26MmUS/sHWpIJBTHTaE7lzy2Jm64FzqKbP3r9i0JQqkjdKvgNNiULK3RZGq5UsDk3x0tAU+wDHTt8APTRY8FStWQfFy30krUni2ZL9DabNX4wyVT6WaOoSFT6CpkgJUbYQ2JSs/Ck0xcqISW+pyp+jU9/huBkUg6g0qiEIYRQQQ1WEs7cWfYaMRaHiH0CjKQWmG61ctwuRcZmIS76LmOT7ooJIu/uT3M3etv8M9AzNoNG8D42mNIqX+RTL1+5FQGiqrHfFpv34wqAZNCUryChZqZr4T1TTayqGwTQoLvdpbXQdOArBcekIS8qSNiom6XTsM1RUMZri5VCuak0YtuosYKfqFw1FhUN/mAqf1MXoqYvEb4ftE/x+39x2lLd9Xv++1xWw/97WpMTsn8DB78A37LbMk9oNTfBlAyNMmbdMYseDopLgrYsWA2RtdDp0MRli2kvj3oikbCRmKSCmiXE7aU26cMNb0pKYmMQREJeFvRZnUN+oFdp26YUzNjdAT5jQ2PvSmuQVlIKxU5eikUkHdOk7WMxcdbHJUId3SCS27D+ClmbdZB2MPJ8wcwFcfEJA1QvNeu2dQtGp51A0MjbF9n0s7h+LkS9BzOrtR2HYpjsGjJsBfjbVF0ZJy/n+V6cmFeQNoz7362HG6+eIuo5/o0cM09vonZSQ9aPMFSqnjp2/BvNhEwRwGHfogYsO7qAyzT8yFf6RtxEYlSkjKDobgVHpolhjq5CVnQOGjp+GLn1GYuPOk7KdMh9A/H6Wb9yLNl37YNTk2bB1vKWA3qQHsLJ2QZfeo0UVM2HGMtg6+MrfCEm4I+u+4haEEZMXoGnbHjDp1BcL124XBR2jz6nq69x/mLRObdh7pEBFDL2wDp22Rt+R49Cp30Bs3GuhgJiMtyDm5btk+S/eWGwzMYatFlS1mHRugcPnDsM7zFcGW0/YjmTcyQRFPigGzXuF8PWqr+VuJu9o7j25V4pTtv1YXT2Te1HLO4a8YI27E58LYmjsamhmhL1W+0Q9oCoIGCFKbw7+fZrjUm3jHe4t8dm86+ge4I76xg2k1WjM5NGIS4sVbxC5GM2OABN+OHghzpYaKhTcA1zRtrup3KnkelWAdMP7GhLvxgmIUS9mVQCjLgliajetKQWDfB7Pa4jOiUNIdjRCsiOhy+EIR0huGsVfb9j7d3vE8HvkYCHSf/wAMdwt9WEpTF88U1qTvEJ9wMH5sctij0AYJia16dkOFhctEZ4UKiBm1bZl8t2zNenouf0IT9aCiUlqelJ8RgTi06MExNDc0rSHKS662oi5Zey9BASnhGPW8jn4rPbH+NKgOuYsmQlnHydJwaI/DI2YZyydhspfVkQ941rYcmSjALao7DBwhKcHvwBiCGNo0Gx5+RiogpEip6hi7Dl37VykfZMGxt2yJYmFFgsu+ky07mkq5ptFyxWVxLBLTpfkbreHzkMMNl21LqCJr0uQswyqiegp80pSkqqG4fJXKWJ+CcTkQRhCyP8iiNlweD3qmNRGkcrvoP2AdvCK8RQYE5DoLwDGuHtzaD7QoEUPY1z1tYcuLVgMvvn66LmjULFOBVRr/BnmrJv9mm3y6jYoeNv9b73v7wYxBJTbj28X43em2tGH6/gFC3gHe0AXE4TACD+cvGQJtpNqCmkE4H69cjY8gt0FvrLNkR4pTA86fumYgE8VxKjKNc9wj1yzXhoD7zt9IPdcw/MNPV++NKwlMIb+V8cuHZdjHAEMbwrwXCQgppACYjzDvXJ9n1RlDZdcl9xoSIuAnYstBo/uLy2ccq4pooH5gG7SXsUbCfl/jyCoZtPacm7pO7afpPq9DGL4O4l3EgTi7Dy2E+9WLKocp97VoGj5d6Q1ieeq/Odx9XFB8/L3K2KU89q/wSOGEOYZfV50wQJi0rxvYdHIoehuWB+dG+phzdQJiHR1QLynG+K83BDjrYxId0ckerjhrr8vHvj5ItvHE/NHDkbHJvWxcsI4BJ2/gJygACT5ecH9/Gl0amSAzo3rY8mEMXA9cxop/n5ICwxAvOdN+FpfwOIxI2FSv7akHO1esRjpHh7I8veD2zkrdGyoj84NDeB+0hLfBQXjmX+wwBj6vHwXECT+NHuXLkK/ti0xdqA5rh0+iB9CwsS7JuLaVUzo1kVam74a0BtXDuxDhqcn7vj5IcXjFoLtbbF4zHAMbGuC9g3roGerpti3RElNegtiMvMXZXmFfn5FTHjiIzGW5HOb9p7Fx7UbQlOksFxUsk9ZRpHnxJPkU+jnO9AUKga2CR055YDopO+xZe8p1DBojFIVP8GEGUvkbjLvUE9duAwffFoDn+k1xqDxU9G4NY3o3ssbhUrh/apfYuSUr0EfBt6FZjtAfhBDrxC/0ARpQ6LShGqYOg1NcPTEJSSk3hcQE5mQIyoIpjJREWPnFIBBo2eiTOWaAmI071bC7MWbERhxG2n3niE8+S72WlpLFK3mnfehKVZOWpUIYAiHajZpiUUbdsIrPAHJD54iOvOBxOkGJ2Rh3ykbSVEpVLoKNCUqKutnhPW75aEpVUXSVxas3gXP4AQpwlVz3hcBi7pt8rbLi68X9Lz6O68uf7VZbxbAhKXYXzVe/TtqMf+mz5o7vzJoQKv4EEWlPoadixb1m3WU1CrGirfs2FO8f1gYm/UcgDZd+8GsxxB0MB+BNt2GYMTkeTht4yyqhWuufqhZzwh1G5vC4qIzAhMeIjLzR0RkPENY2kM4+mgFolCxYtC0lbSafDVrLS5dC4Qu6j72HL0kihh94zYw7dYHI6fOwbxVGzFt0Up0HzBCvGr6jZggj43adMbEWQtFEZOQ9hgJqc9g7xCCtp0GoolJe+zYf0oSmQhjAsLSQSNrvWbtMXD8zOeKGEUFI2lJagrQc/Pll0161Z/5varQpaBl3vf+pm3y6177t4KYiJQnSL0LUZPc0sZj2sK10GvWFnrNTKU1qUPvQWjbY7DMjTbdhoGjfc/R6Nx3gsyZPRYXwBSkE5euC8DhezfsPgVd3H1R2qTc/UnipZu17y6KFvq8UHnF9koqZmjQyxalOo3awKzHMHw1dxVmL92CfiNnoHGrnmK+Xb9FZ8xYtEHao3h8Y/w14ZBpt36oUb8ZqKajIobqr/ytSaoihq1JHfr0wV7LC/lATP7Y6jc//jPnwS+ti4qYE57nsM1NVcSE5mtNYg+40qOt9mr/OmNetR0p//LFAoEXrfkHk2PGfz1R7ujxAphpQ7zrb9bbLDdqk6CFMINmrIwADU4KAS9SdxzfpZzDiisghhfG6mAhw9kUNAAAIABJREFUTzjCvzVk8mCUrVYWhh0Mc6NHmXrB97Do7Tq0KxhLSmUClwatDUClA1UHTD6q06SuXJyPmjRC5OtUQyggJkxSYGhUy5/593hHUZW3v1e5lHzu8p+Wk/WFp4aK5wdbk/h+9e64KBaet6PkgpjSBEN9xcw1+k4MwrIiBcQQxqgj/0VuQRfBf9Zz/xSIYfFEr5jPGnwm3yONNhlf3qFvB/FGoGkt1UaEMOWrlZfYcxpQsrjwCvPA4o0LJIr1o9qVcOziQcRkRiA6g7J+xlhHCYRRQQyVM23MTXHB5SKi78Yj+fFtEMYcu3AUjVo2QNGyRVCiwrsoXeU9iY21c7cVE8+5q2ajmsGnaNq+EfZY7cwFMdx/CGLCbmtzFTGqKibxQTwaU+5fWmmro1LrqLWFQBiCPEbeqgUU53jjdop5Jv+fvDPNfYHJLJyvslQfc31lNNLmdOTiYQExUTlU9vye+Orn+636uwWBG/W150seKw67/5bUpBePDX/WfP0712M+thfeqVRYFGxfNvsCl25aC2yh+mX22lkCWqhW+LThJ9hyfLNAWyatuYe5wahLU/k9qt8atKv/FsRkKucdztewzFiEZUWLIfmvO/e8Opfyn2d4LCGwnLlihrLfFdegZCXFS4XQvLrB58q2YA1UTIPug7rk+sPo4gNBdR3PQ2zPeRnEcN087zA1adHmRQJNK9WsiL1We0TZpqYd+cb4YsSMEQqELa6RBKZazWph3NwJolphiyHT4ThfRs4YLZ+XHlH5/x98rEJ/gmBtjD+27d+o1G6E/kU0WLp6gZyD8oMYfqf2PlfxpZEC+fuO7SOpbaryjv8HDq6fkJnKTR5DJ349Xlm3RiMgasPBdblqThXAqMuC9rv85yj1sfo+9ec3Lf8pEKMChvzmv49DgnAv0AdnN69F/1ZG6GxoADP9WuhsUAeDWhljWNuWEu08sH1L9OvQEkw6GmzaAhsmjEPStetIu+mGWYP7iR/M3kXzkejsjO+iInE3MhRxXjfB1qH+pibSYtTbxBizhgzG8kkTMb1/HwwyaQEzvTpo1bAuViyYgSDHK9IileLpDhcrC5jW/QJGn3woLUc0Bn7qF4TvvP3xQ6BOFDFITMTJDavBzzZ5aB+4Wx3HzzFRovKhUufU+tWY2KsLuhs3Rv9WzTGzby+snTgBy8eMwoj2pujTvAlGdmyLXs0ao08LQ+xfMBuPg/PMep9q/fHyyI20Lsjr5fc+l6u8eZ0iZjLuHbfEr/mnyf+mKTtuYLtdJNzjn0rxGclI4qzvcmOJWYRzvPnCOq+wzy2UM3+QO9C8C83nWLC4B8TC3j1QfDzo5cFxxS0Al138YOvkI4M/2zh5ShR0UEQ2YlO/hzYqEw6egaBZrUdgjPg3EKh46eJlfTS9JGih2eU5e3dpQVq8fjcOWV3G9VtaiXlmog7vhEelMXpYhTFKhHFQVAp2Hz0DjaYwNJpiGDVpDm75hCEt6zukZn6LjHs/SuRxbNojaUWITnkobTCn7dzFp+XkJRf5G2oaC4EPPR+u3QzCruMXsGLbQUxZuAYzlq3Hxv3HcdHRA35RyYhKvy8QJvHuY4mgTbz7FLrEbNjfCsL+kzaSpjJyynwMHDsDMxevx5b9VrB28JG76LnKiIxnoFGvOhSIoW6vvO3yJrjx4u+ov5u3/DeDmKQcICnnZ9zwCEddw3YCLaiKMWhmioYmbWTUb94G9Qxbo34zM7DYrdW4jaTjHD5tJyDm+s0AgW8EMcdt3KBNeoSQtCeyJIjRxqaKqsV8yBg0at4e9Zq0w/AJiwTExKU9g5dWicpu3bW3tLkQyLDdpblZN3QZMBwL12zG9Zt+siQUmjx3maRp0eQ1PuV7XLkRDLNuQ2HY0kzi0NX46pCYO1ix+RCatO6BkdMWwdY1MJ8i5qmihiGMeQti3nh8oiImP4i5GRSHqQvWiBdTzUYmYoRr3KEX6rfoKC1/Bs27gKNhix4wNO2DhiZdxLvlljYah07boO/ISejUZzQ27T2NyJTvkHYP0iLIYw4Nf4dOnCnHMLawEcQwyc0vNEVMndmmRGDYqGU3NG/fB3UNzVDDoBW6DxwPmm+7+kUhIuWetCrSeJqeUmp8Nb2lmJqUB2J+FEP02PRvccDqknjEdB4wALstzirHXklNejN8ic/Ke/3Nx/i848Gf8T4BMV5nsM1tKS5H0yOGIIYXfaGIztQhQuKR82DMr7sYzg9g1McvXiDnv6gkCCEQoUR7+fYVimya0u2yhaQlpQiL7LKF8KlBNfEAoUGr6ofBu4e7T+7JvUg8ZX8qF8LwopiKADV5ZtKCiajwRXk079xMFDjqRSdbQDioyuk+rJvAGrY5EdoQ3jC6k2DEoLmeXFwzVSMyJVzaUgoCMYQ6hDR8z81ANzAOlQV+y64tJAKUn4l/jwoaXozmBzEqjGGxoGdcVy76B4zvB2tXFnYh/ykQo5rU8rtiIXLB6QJYOBC2FHq/kMTPMoKW0IEwg9Bul8UuucNLEEbg5RFyM9dk8hO9Kjhweg9isyKReDdGQIykHj2HMebDuqNU5Xdh2qs1TjmeQWhmOPwTtaKM4TxbvmmpwJhi5YrKdqlYozyobmKE+qzlM/BF42owMmuM7ce3KiBGvGGYiPUqiKFfDIHM1KVTUbJqSfn8w6YOB6NsWTix3YB3x6nmot/Rok1LUKlmZbmLTdWO3Czj/5tFFwdvqBHQcPn8Zhrvxh86f1AATGR21F8HYghn8sGYkJz/HoihIqZuqzoo+UkJ9BjdA2xH4n7NFiXLq8dFCUO1TCvzlrD3uZK77xPUjF8wDmVrvC+wZuaaGW9BzF8MYnj8ZST02r1rxCCbccw0uuUg3OTywxoVMHvpdDj5XEdIQhCCYwNkSXVdkXKFUemLCjh09gD84/zl3CXKs+eR9jzfcN08LlWt95Hsg+r5juccQg8eyzoP7owSVUrIvl+kYhF0H9ZDVC5BCVpUrlVF9mW2097wvS43C9R1qEtFMaeoBuMzo+HgeRXV6laV44B+49qwPHtEzkEvgxjnYBcFxBTVoP/4fiAYehnE8HOqiXA8jp6/cVbAM4+zVMf8GWa9vw7E/LNmvQWBmCe6IDwI8MGpDSvRr7WRtOl0aFAHnerURDf9OuhuUA9dG+jBrIke2hjqoWPDeuhavx6WDBmExKtXRRGjghia9cbYX8WjiDABMTnhOvGCuXx4P6b0743uTZugq2FjWXbQr4uuBvoY3qEd9m9eiZuOl5Ac5A2aBmf7+8D19HF0rF8HZvVq4qblcXwbGIQnvoEyCGK+9Q/EI50Ox9etxLCObTB5cG84HDuI70J1eBjoj7u+PkjzvAm7Q3sxc/gA9G7eBL0MG6BHg/ro1bgh+jc3xMapk2CxejmmmffAIJPmsFyx+C2IefVCPK/gzw9i8j9mCwmLZlXFoKR+sJD4GdGpPyAy+XtEpShR1wQmvJvMiOD42z9KIROTdgf0UiFIYSsKvVGibj/JNaiNzfoe8dnPEJ3+GLeCk+AZmoqQxPvyXGL2D/I7jM+mvwLXT1jC9cVlPoSnLka8XDSaEihS+kPsO3oW0Ul3xCg3OetbpN99JiCGhsL8+2n3Wfz/KOv3j8pEWMo3iEh9iOiMb0XZEpP5CBFp9xGSlCNL/+g0uAZFw00XC9+YNISl3QfjW6OzHsmIv/cUHHF3n8jzUekP5XfpT+LsHwGXgCgwRtk/Oh0h9MfJ+Bbx2U/FL4RFuAph1OSkvO2Tt13UYv31y9cXWn8cxLy6bhXw5V/+1s+deOdnJN+DgD6/8HRYXnSE5cUbOHbeXuJ8La3tcNLmOiytr+HouSs4aeMEq8tuOGHthHM3PER5QKAXEpuJk9YO0q7iqk1ASNp3El0dnv4EcXe+R+r9p/AKjpJ2k7N2zjh/5Rauu4VBG3UHyVk/yZwiCLS4eBX0HSFs23TQEgfO2EhMOecXU7MYYU6/oBu3AhESmy7zmhHYXA/XyXWLmWumkjTGOe7iE42Tl9xg5xaMwNicXI8Yzvfc8RbE/CKIoZG12sbGliBCUrYnca5wfpy+4iyJaoSqp2zclXHZA6eveMHK7hbctTEIS70Hr/Ak2Ln648I1L9k2VKYQBBKOOHqH48J1D1l3UEw6FEPeR5BY9YzHApSvuwfD8ryDQNVlG/eLqoYm5jaOvgJzBRSzbTLzEehXQyhz9oqbzGu2VnJdnBeKIkYBMfS04Rw7f90ZF244gcBIAHgWkB+08HFs9uuHui/m7Yev7rd/1msvgJiYcwjO1uUDMdrnIEYHRtJy/BUgRr0Dx4KbF4UWdsexet8azFg1GxMXTca05TOxcudqMWplm4racsSlNjkYDn4OYPLMtmNb5W4ki1x1MJVImxQgEdF2HrbYcXI7jl+xAD0donIiZUTfiZLCyCviFuhXc+DcPimm953ZgwvO50R+HRgfAEsbC/GvYUsIL06jxBeALUl5ihgxN85QXuOFLBUTFaqXk8J99IyRcAp0UlQzOZG5xRjvBIZmhspQoQxbV47ZHMGmw5sEwvhEeSPkduhLIObf15oUnhOWm3Shqqhet1QvxF+3VNu9WHjw7i+LHVt3G7nDzBhaQgzCtQUb5sv2v3zTVuaPOp9UwHfD7yq4Lbld6c2ievMQoimqmAjxi7F2OCOg7OSVE/CI9kJIRhh8EwMEyPBv39LxeHQcO45swbYjW7Dfag84Lwj87L3scOj8fpy4YgH3EBdFKZUZLrBFlfBzSfjCwfnJeUnz3WKViqKmUU35P3BdaoHFdcv/PTNGImfpNbH16BaZE5wXe07txpYjm+U5Ljce2ig/079h3f7Vuf9f9Xt83ff86vMKPFW2W/4Ek7zH+X/n5TvZITm6/5wixjnYCYdtDmOX1U6cczmHwOSAXMBKKEN/mG2WW8VDxi/eVwBNcKpW2pPoKbP//D4cunQQ9IvJ/93+f3/8d7Qmvfwdqi2kPNccszkm+zIVbVR9sMVwxbZlEtXsE+GF0GSdDMKY8CQdnP0dsffkbuw7sw9uwa5yTOKxISSVwFXZt4OTg3Az1E2UcTSiZ6uSqCSfKzN5fOKxiXCd5sE7LHdg54mdOHvjTK5yhs9zH+fxjjcp1GOguh4uuR51XfycZ+2tULrSuyhUUoOxU0fA1cdBFH8quPm/9r40xq4jO8+xkyCAgSyGkSALDAROECQIAuePE2eMBAgSGAhsGMkP/wjgJU4wMxhp4vF4Ym0USZGSRtZIGnJaXERS3DeJmiZ730SJlESy99evt9evu9ncu18vpDbupPQFp+qeW+fWrXvfve+9JpvUbeDgVNWt5dSpurfrfO9UFYH8I7Oj6Jvpx/b6HXh99xuoP3lUeW4RYEjfJ0ns4UKc+neo/YD6v0hAc3tPi/qG2bqNiptvRPhHHfP/gb8vJg8/u3gpj4Y1q5fp+uqwFwd7dUgg5s7QIO7mc7g9nMP1gV6MtzWidd821O/djNadm9G59U10bNqIzs11aN++BQ07t6B+9xY07tiMtm2b0XfwAK5+8gnooF/yXmneuRVDTUexeOaUugJ7cWRQnSnzxfQ4Zro/QndjPVp378D+N17F5rWrsG3N82is24AP9u/C8MkOXCj0YmG0H18M9qorpM+d+gAde3ageUsdLn58Al/29+FGTy9u9fXjZi/1MYdPB/tUm+27t+HDd/apLVN3Jgvq9icCYgiUudzzCXpb6tG26y0ceu0VvLX6Wex7eR0+2LUDoy2NmHm/Ez2HDuDEzh2YamtakUBM05NP4OpK84jRxsJdZSiTYcDeMZxOfOrKXRQvEwhzWxEd8Eu/8NKvyLQ9g4EYumqYDRv+Rdi+KYgBCQJoGHCgNGqX2iKDic6toW0EZPDQFqLc1Bx2HG7QZ7r8jb+rzmOhw3Hp7Bi+WYd+2ab89Gs0ATkEwhDoM3HlhiLaJlK4fB0F8raZv4Wp+RsoXPlM0cwSxW8p8ISBF+YExhARAENAzNTiTRUnTkRlic5dvYuZxTvKG2Ji9ktVFxvh3Gfmut9sQNUIiCkBia6vjtyaxPIYzkaf5MbISyb3zOJXIKKxLVz8UumHQKri3BcgMIu3fFGciMaBACwif0yufK49wOZvgHQ7evlLBcLwYb0aiKF5+qmaD3QdOW1Ro4N6z87eVUCMOtB1/gboynQ686d/6jIGpq9g9NKSmgtnaVxLJJ8mmseK5tigvqu2r5yfvwk6EFrVXboHBhDJ8OatSMQ5zHOA5zpvRbI56dW1JYnTjN7N+FSathK3JrF+NDB8xwNyr6ttigTEEShL48GegDSedFsSv1P0rtP7R0RjSQCJ8rC7fEN7ntDV8bMEkFzHucVbiqg+9R2bMwf/0k1b50t3FcA8WCyBPHPoLJrRc3Ql9XUfsNFgyxd+PWo7JclXuqXOgzLfTw3EkLyUR/Vl7jNVFwHeeougGdMVCcScXIVGH4gpojCfR7FEQEzOB2GWC4jhRSYBMWSE0q/rA+cH8dHoKXQNfIAP8ifRe7ZPARH8yzsvKmkBSWALGba0YGQjl4EY4rSIpDy0yORDNBmEYa4WkN6ed729iLYYjasyzElOcgMnIhCG2qIzQCQQQ94PlE7bjshT4ntPf1f9gvqP/+U/VAtrMrSpTTIGzOLUADESkCF5KT8ttqm/BAwEtybxwtXwqIVwLdKTbE2qJRBDoBRt3yCjRRLppHeqV7nsvz/wvjrIln6FVnPHM07YQKFyNC94DInzljAKE/FWpYnZETW2VIa8YYhyV4a17i8Nozinx5+MHpKBZVLzwgNZaMzYgKEwzQXi3BY9ozjNSTrLhW5Jom1F5Olz7MRRNdbUD6qTPbloexJ5xeibwPT2B+qfbYyxTFQ3vw9KFs/zKvkcqAUQU4e6ky+i/WwTxq9NKHBhcn4Yk/NDmFgYVu+MAXWD3nLJ5Vw55WieEjGQSmfAcJjedXrG3x7Oq4xfzyOO+pweMFs5/a90zB4WEEP/a+j9oXeY3hsCS+hbQmcs9U/2KqCdzvHi7z0B7wy+03eA332feyAMvXtE/I3R3wINJFN76lsxO6Y8/CjO7zqnkyz0bvP3izg9o7w2Udv8HSDPv7988UfKO+7v/KNfxpa9dcqLh2RVddM2L+/AbgJjKOz/L/W+s/RdchH1gcBr4vz/lDjN46Tjbv7XGZCF338GW1x5+NlKAmIIkLk5qAGQq/leLAz34tOhXnw+0KM8ZchbhgAPOtx2cagPi4O9uDrQi8/6e3Gjvx+38kPqvBi6cYluXqIDfL8Y7Ffnzqj4SF6lXx/WZ9HMfvIRznZ14NzxLix1n1LbopaGenBtdABfDPUrUOj6yCCuDffjs5EBLPZrLxkJxBAgQ2fcEAhEspBMS/l+dRPSncIY7oyN4PpAP26N5HF9NI/PxvO4OjyIK92f4OyJ93Hpk5MKLCKZyANH3Ro12I8buf4VB8TMvLMXKxKIkR4xDMLINDYoFPhCAIwCYbSRQ+cq6C0adzUoQx4sdMbL5Ru+az6fj8KcDS7JGYjh9qkN3spCW31oi8J/+e//U92s9Ld+5Z+ogy5pOwB5y/ik2ibDjYyrm8rrhjxvmNg4prg+RFWDMXr70E3PU+YmivNM2hOGgRgCXQiMYQDGcAJnDHCgQR7jCUEGom8siu1J5ldws2XJnU8/1/oyBptthNO5LysRiOFxZgNbAxMa+ArqSqaZsB6fLxVYQuDZ5AJ5JN1RtyUxEENpZAATGMc3Lsm5SbcnkYeW8nrwAJapBVOnlsO0aeJ6+595H26pA6HJUGcghq9PVqDAwl3jASO9YbKtSbHeMHoua2CP5wkBF3K8fFCMtmV6YIcNxGgw5p4C8fhmJT0+GujV4dsKpKE6VP3eQdq6vdve90xzf854QI3Or9tn2agdBQ55W0V1vbcD3jDKs5DnH/HZu4o0EBN8p1cuEHPY84h5OEAMLzTNNgoCZZis8y3Elh65eCTD10W+YSoO1lW/jHqgiAp7hjkbzTanhSgtbJko7gJi1LauhQLIA+fX/+0/VS7mdP4M/QJKfWSjyyw8DZDCaQTIKEOOF88eMPBNBWLYOKmE0zhJsseV4zqPNlxIz0QExiijRRhHvvElACI5BznM85Djar54c4wOqKZfvGlrAhGdKUHgEhteZDz55F19S1uV/DTxPKQTz6DiPic1lky+6oCY/FIOO05+s4AYfqclmMJAjNGrAVs4XxIuyz9u4YcBxJAO+X8Ncdc7RWn8nSdOwDuDMiosAF/1/glvN37fmdv1U/6o9uW7bJeTZShM24noW0Rh8qb5rd/5d2rr7H/4r7+JrtNtWmYPyGHQxcX9eRoDxHBfmPtlXGdGOdL4/xoDK8QfRSCGQBgiPjOGzkchMOJLj8hTRhMBJJoYZKE4ATG3actQX78iist0ehYkyq/pxkAvmG7194KJQCFq/7O8ps9zvQooISDmel+f7xFzc2BQAyhDg/iMtleN5HxwhQ4gvj2cV0ReMV+MaUCGQJkADQ+BwBjKr2hoYEUCMQ3fXy6PmJLrANbgAl8a7mQAKFJXxZpzYhgIMYbnPd9oKA/EkOcAATHXPSDktr8lqVi6CybyBJCyUNiAEl+rZxOX72D8wnW8sfU9dT4D3ZL0C7/4t/HL/+DX8Z/+2x/g5EBRebKwFwVzbbRrbwQCfgpzt33S7dOhu7c9Y55AFQ2iaH4XU4tE5rk2+snwt/PKchTWZQkg8Gn+HlRfFyTQYs56kH3WYZmPwya/rTMT1wfvLg8Qo/tge2/IOAMtibkCKBj0EPqSuvPDnu6VB5MOMxAjZSCdE3iiDPT5G97V1bdA3g0EwhCRoU3PNchywwJ2NLjje69YMnLfqA7aYhI07tnIl4BZtLdQQG5vjlCaeg/maFugm8x4R7/XSfOsfI8YPV4MfNhcj6XlEeOBnDOLGohhr6oAEEqgqPC2ovHmuuibRwAJeVAxaSBGe8vIMM8lNd8UKOTNPfaG8cEW7Q2jt3jqrWyqHgXE3FffYB4z9jrjbUlF8gz0iNOIcz6bcz215BNLX2Lf6YP4qfKIOYyhxRwmrxIQk0NxfkB7xCwarxhePBle2a+yrkUmATBMYwsTkKQM44VgW7wYNDyPkTl9Jof2TBlSVwfT9cFEBJBI7xV1uO4iGUdBr5bIuGXQU318Mw5zbqd3qhuvbn8Fv/Srf015PDz32jP4aOyk/yv52OI4iEaXxtXNR/btR9IzhsMKnLFuSaIF7oMyzpJ6xNAZIS6Si3AdDgNQsi9mXD1QisGpFFzWx+FI49cbX85nt09GCHsz2Jx/bZacjSr6lZu2L5DRRL+Ak+FEZwD99u/9tjof4t/8x9+AOlRXGHf0fthGkw9QWoYOy8ntsbFUORCj55QxnuQ4mV+05XjK8c6AGH32E88jySPnngUQy3yy/OMWflhAjNSvHSYdS1BWvYvi3fTfM5kWAWLQu8jvIXMGfplzuv0/0cS1PJyfOf24QPUPnO1VZ7b8zb//S+p7svq1VaBtVbQ1luvgb4nrndagP123HiT1/5L+Z5bIU0b/D2XOefU6IM3/IAPA8BpCfkeCYbMlulqPGN5i5OT+wa/lr1y+O9QPIjqAlrcvERDDxEAMASwMshAQQ8SAC4MwxDkfcQJg7vYz9eNuf5Bu9XfjxoAmCt/u64biBNDkevFFXhMBMbRdidvjNiiuZBnqV540nw/TmTEDoMOHiWjLFdGtkRxujAoayastSwTQMABDXj1EBEQFD+s1B/c6dR06nDeHO4NEA+nIH7PwYb3kEUNAzOLe5TisdxmBGDZQ+Fdcxb1fiI3XwW19za8DiGEAhjkbndJgkKAEpY+cv4HChVt4a38b/vPv/RF+5df+NX7tX/0mfud//BGOdZ1RZ7ow+GI4nf1ibquh9ioHYsIAAYM0QfDGgDD03AZhVF8zIMbfgqYADd9ThECRsJ59HSowRoIvMnxHgVw+qOEBMQzGkGcM3ZwVBmI0YEP5tKcT16nlCAIxnNd4N9HzDIipHgiS774JS48YBmI8Lybve8NgCIMnAY+YABDDgAtx4ZGmgBj9jMea6+LvHIMwxLk9m0cDMRrYMd9KBmK0B4wBYSgeDcQwAMP84QMxz6Jx8qAGYq4VBBAzgFECYjwwhhdPhqdZhJm8vEBkTsZpFAhDgAwvIKUhwgao4UEghheNzKsFYqjPZtFMi+MwEENpBAI1fnwUv/8nv6tAmH/x7/+5OjeCZFeyLoz5IAwBMQzGcB+JS/BFhmUeDkudLGf4cQdibN2ZeWWAIBuA4bgEYDgsDTY654EAGQJiaMsRHSpNB1/+4q/8dXzv2SfUrVDywEx6L9h4Yq6AGAuE8ecUGUtsGFbtEZMOiJEgDIVzV3PY/lHmEWPPJ4rbRn+SuKuexyXtYQAx5XTOuuX/Tepd5Hcrij8EIIa2PxEQ03amGf/7R3+i/tf86j/7e+pcGTpEmL4z9M2R3xL+nyH5yHweRAyuMFf/Lx8KEGMAGD6b7lEGYhgAYWBEAjEMxhBPCsQwCENAjKKBXtwc7MWXQx4Yk+v2gBjtnRMFxBAIEwXEEBhjKK+2LNG2JQZgmGdAjLqaONpgSuMRwwaKMS7cBgqfv2B7xDAAwzwJEFOcvauudqWrtU/0TaPz1Dj6ClfUtqPCxc/9s1j0WSN03oim5ECMZ3h7nizs0cJcgQHCW0F5XETk5TJTC/eD4EDmERMEYLzDatkAZu6DKaQv3xOmHEATBmLUGHmeLNpTgb0dyKhnjxgGVRiAIW7aYs+XIGBkbjwimQOGfWCrGXnEaI8uDS64vWIC/ZVzzOEpZkCK6Hc5Oo+7ferbSvaIkWPA2wkVn7sLtb2xZG6icm3lo/OI1Bgx6GKPkZeu5h/PSY8HvnEeEBOQwXX2jw8senOrdE/LyfJG8vsBz0D2cCHQhQEY5o8KEBP8xYp+3TLgSjVhuThmb5GAR4znCSLbCBvKYSCGF5XEFZDieb/QWSZeqTa5AAAgAElEQVRE40sEiuhwpCeMV0aDT7K/2sOGvWGI5y8NYOjSAOpP/lzdlPLbv/8t/L9XfoSPxz9SZ8OQ/LQI1t4woxhd0kQGrNQtL44lCKN+uXR6xIR/ZTRAmXwmZU8fPnm+C680PYfDIztx5sonGKIzVeby3rkfQygsDmNsaRh0WKttnNv9032VnhY6HD++BhAJj737mayPw3KuyTA/Z+5qg4EXmzP4IrkPjHiHc/IZSHQeBR32+a3f/ZYi2rLGnjJcRhpPGRCTfq7yGD5IHjeXWA6ZJ2mYyz6OfGUDMewZo891Yk+ztDwI3uvzqtirhbj9PCouy1CYPGHo8PGdR3fgj3/wh/jW7/4W/vSHf6zAGdoWSfOLziOT80YCMBzm/zXyfyWFMyAm7CGT2CPG20bEHjLEXduKeHsRcdqCZHvByDgBMEw+CNPXjbseEENeMQqMyXV726M8IEbIQp4y/jaq/ACu5wdAt0ARsUdMHKd8vD1LbtHirVqSp/ZySeMV843xiIn4tViDMfrGED6klwEY5kmAGDIueZsUHfpLh7zS2S+0RYGAHg246HNdGIQhLo0mai/sEUNbpGjrkTG+lQFvgSwuY5mAlhDJco8IEENbmPQBoTYPG/suPdhp0nCuNGzXWWlcte8wjAmIYeCHuT0HqM0k8ruMf5P2iAAx527gqTdbsa19Gqemb6FYIlCAtnAReHUPNEcm6FDn+fCciAZ+qs0b1j+fK2Vze5yM/nlLX3lu10FxakeCMXa7HPfL8lyzAB3OF89rB8Qs15iYrUnPorl4EPmFHCavFdRBvbQ1qbDgecRY11gzaCAXedWEpVGSFIih9oLGcnkghgAKkp3BF8lrAcQwAEI3onyQP66oe+qM2tJCfSSZuX8MwhB3ARVqgezdpsSADC+eJec2y/PqDFoDxOzAmdmPMDSbx3gph8mFQUwsEBAzpIAY+hXzcQBiwvNLgz02CENxCcBwmEEV4gSsENhCnH6ppl+s6bBeIj6UV+ansF+P9I5xAJ/8DvjlH7BHDL1PcryzrUnZ1qSk/wseFSCGwJG0AAznt4EVG1Cxn0fF7XJUPwEudPsa3fh3In9ccb+8t91NjoX8v2HCI5lHjG/Yh8EX2obEVA6IoS1KEnSR4eUEYm4LMOb6YDQQo+TxtlKxNwtzBmQkt0GZDIip4dYkAkAUlb5WXinsPWOusta3G2kvA/Y2MGfJsCHDRggDMMy1wRs02uTWJA6zHLx1QG4PkIBLKOz9As3taX5fGZucZhv6IYBFgS7RV8i68zNQEy7HfYrnLuOx9mfEMBBjn0XiMub4V/o47iqXJI3nFeeNa6PcM67DN5Atw9iVbs8B17w09Zr5Gj+GZrw4n11HsC/BM3jsvNXFw8AG66FHADFnpm9hcu6+AmAkEEPzhGStToYHU551XS2nvvK8JB7f92j9sp7DPLpOnhdJPWLiZYtuJ005AmIOnDqIDScMEDN9VQMxkyUXEBP0YpCLvNgwG5MOQ5LKlQNiGLyQ+VztkVHKW5GIsycMgxQMIEkAhsNuIIaup44nXiCXy8fPuS8SiKEwy0Gc5TSLZaP3cL+l14sO86+Z3G/NlxGIWRwMADFG/qCnTzDd9In7Ge5bdTLL+lj/Sbksy2EGPULcO1SZwRPiPjBibWfg206innM618UeMYpHvD8kH4E8mswv+WSUsexpOY+Ji8u67OePHBBT5tsk+xoXTjqv0uaLa/ORfMb6LhXQNdWCdQ0/wv7cJvRfO6MBac8bg+b7aGkKo/NFdXB2rfqaVP/8XSfugxuhc8KC71qSfLLe5Qwn7WdYr8H/Ify/RPLK/6+E/1cF67KeL+QxvpAHbU1qWl359dWx3hke0HJvsA8hGhjAPUH3c4O465HLI4QOzo0iPnSXufR2qTbMdUa17UqX3isUlp4uHKbrul3EzyUP1ZfGwyVtXh8c4zNiDJ85vF+dEbM811dnQIzxhsmAGBzpvoKR2XvqgGTyIqKtOgQ0TCx8pbwdyCMmA2KCIEgGxAQ9YjIgphyYkQExYY+YoPEcXsRFGH68+I4wJOWikYEKuTWJ02Q+V9sZEBNcRAcXuRFjEzEmtn5jPWIyIMb3YPEBFAuAYYAlKffr4XeHeMxYZUBMhfOb9Ruj2zi98zP5baplmOt/bDjrOwNi/GvtlwOQSToHw/Mq+D9EAjAcrvz/igW0zJeJZ0BM7HYlBnCWC4iRQEu5cAbElMIGhf+rr+PWJPZEmfE8Yoj7+a3blqRXDHvCMM88YoxnTLJf6jOPGPYKSMvNr/zJjePMI0ZvTco8YowXE80j+a0z8yr8DQ17uySZe656dBrP+cwjJmwwyUUjgy4ZEEPeJEHgi+JRC2e5OK5+wRxuJwNi7K1w4lyaFB4xGRBD51eM+tfXhudzeO4tax4GBjIgxvFtWYaxYH1nQEwGxGRATCKghQGXKJ4BMQ/KI2b+qwTbCJIYCjJPtNHARogLiGEAhjlvB2KuPQ9kO2XC3jkMoS1I3sGZgXRxMCa3R+dfGNLXaLuM8HCa1ikbSEEe9qYIlzd5amfQRY8JeTDs7Spg3YEzVXvEyL6SF00UyXwyHN9fdx9k+WRho19b9zw/XdzOG4zHjXn5dyyZ3LKNYB9c8rIuk9cdrDPYP/0ssDVp6g4mZ7+O3JoU3275toLty767w9zf5LzM96PsNjX3fCzffiXthtty6dd+34J5tM7dcyUoU7CcW99xeSYWb6jrq/XWpMPqjJg0W5OSAQXJFvOuuuy0cgaZ3jISvAGCAAq+fSHIg9tmJJBhwslkLytXAFDR7cpzNVxnxOhtPHFATJlfE0OLXN0XW6dJ4xKIOTX3EXJzdCbPoLrmfOIR8IgpN0ZJnoe2JKW4Sps9XJw8pp4kci1Hnrh5Iduz8w0v5bDjZB3qPlqH9rMNGL9GZ6aMqEOdzXlCw2rLgXnP0s7lpPmrfX+TtlPrfJXKXWs50taXQO4AENOEdQ0/xP5cndialENhng5XH/O2JRUVIC3nXDicVs4k+RP0pUrwLtwPV5tJZJV5XHWkSZN1PeSw8IhpWENbk57H4qF3cLfvNO7nevG1R3fyvbg50oubQ30h4mum4zifARPiMVtmjAeIucqabi/SFN6ixGBJtdwFxnCdri1I4TQtY5w++NmdfL9zy5Lpu7mu2k6L3Q4Wo1e/nL/9yJzRExqfnAFg7nhh2prU9OQTWJ6tSSsAiGFQxjYQgoZYciPCr4cPxHTxGCNLt2sbH2kMR7usjKeph4yjsAFm0oLGk99vZ9+i6yGDqtZAjG0QuuIuQ870LVpeO4+rnvi06DGI06FrPpo0OcbusC23jMfL66ov2Ae33FqHyesO1mn6ZtKdQMzcV/qw3jm9fU1tTfLOiYlu29Tpaiec5tJBME3qM1k4zfvjypt8jgblcdVVLi3clku3/J65nrFO3XMl2L67fFDfcXk0EHMYG06sQnORgZgiiqU81Bkx8+bq6ihgwDbEki0uwwtDux5XPFnd4cVjEIDh6zE1IBJvDIblTCZDsFywL48mEHPiwnG83PwcDo3ugARiaPtaYXEQY0t8WG8Q4AqeCyOfxYFMQf1VovMVV0YYoIFzXyj9gRh06XQanLPBsZLy2vlSATFkaIUAw/D7W3medH2W/dLhWsqSpq5K5U7TxnLkTSC3eA/0Yb0MxJxSN66NljIgJjgP045TgjGI/d6kbW8Z81tAzMBfaCDmdr8BYgiQYSDmer4HRDYgw8BCHA8b+X3wQQEHcGCABwPEmPrDAEVcXWmeyTNrOMzljUzh9s0zl7zutEcRiDm/soGYsIEQNDrcz303fm+LE4ExSQyEivNIMEa15ZarvOwuOWtZl11/XN123rh4dD1kUFUHxJhblNgIZ4MwjrsMOZf+ea64ntlprjrDadEgQNz8YkM2XF+Egeqdv8Q6cd84pXXHeQLcA0mTtOeWW495kvI6T7ReuO90fbW+NWkGZ9gjRgEx99TWnID8sv+hvpRvi9vU3NKxo257LpSPu98XBoZdPKhn+50y70H5tqmsu32dbtcdjkfqWoBgQTnc7cl+skzOOSN1XiYcBmLymL7qATFztCDOCW8SMqKDBtnofEEdpCi5b2TGLvbCi8VQ3XZbtC1HLOI5bJ+N4VrEuoAY27iLO2gxWGdY9tBzS85g3yQYIcOWbh39p3pMW3oBzNuQiJs+yXzBsC+LY+zkONrhdEBMuC9G7qA835h0a07w/FU85bvy0HUm+2LJvqKBmBi53TqV79SDDDveESm7DAf0/yBldLWVQm61NUl6xDymQIwcKzscGDuH7tRzl57j0hz12O264iFZ4tqo/TP+/2v+h5k26LBe8ohZViDGAbYwwBHHDfhiwIy4/NU+Y/BFcrtOA7q4ABkjp0v2cFqwjjuDOaSjgVhAy5bdjyfyiGFvGeMZw0DMtT17keTvF2SmJzd2YENTASfP3kahdB8FOoB1/oZ/CCsvuIMLdnvR717AJzUYXHWzce0yAtgYqCnPgJhI7xqaAxkQo4GBuDlngAELFAiBDN5zy1jNgBiptwyIiZtrrm+mnZYBMY6FYWjRFzbcfcBAABIB49VbTGZAzAgYjDGL2Gid+3rNgBgBakXry22gV5DfZfxwmuN9qFm7y1E3y03cqj8DYowBad7HtGmO+SV1LsMB/adtp9b5U8idATGhd8d+l3Q87RilGwP/f2pgHlEdadutLn8GxCQDLCQAw2EfvPDApAyIeQLLDMTEgS1xz2zQJm08ru4aPntkgZga6iDiF3gNxIxVcUaM8QRg4zDOE4afMQgouW1sUpxBO9czO03WFR1OCwLY+SWgEBO2gBjWTWIeBfAE0i3ZFu6oW64MaGQ9D5S1ZffyUh0RZLYmrTyPmOjxtvvJcd1fGxCR4LAdlnlD7cnxjtVzsP2Aruft8eI4lxFctmeHvfaD74f7WyL7yP0L9Y3qs9uIiafxiFFnmiyMYViQ7TVB8eiFHYEt0gOkXDgMzvh1C0MkDogx7fF2JMl1+2bBqRewvCCUnBfIPoghwCFnmg1yBPJzv8OyGHk5j0MH/oJZL3zpPAUm0xfXolj3z5fXlrFMPPOIcRg4/lh8w56J94/fDeYZEON699KmOeaT1LkMB+Zg2nZqnT+F3CseiKlUN5YO5FjZ4WUfO0sWbs+Wg+L8zOeV9r+ycvz/1vU/7JHziEnlzcFeHQ5eQy+dsKdLWs8Yyh8FFsV5yXhlaqWTQD3GE4bPiHkAHjHuBTovyuN5WuDFzl9N2ynKpgZiDLhQ3pix+2THuS47PYX8ESBK/Ngkq5+Mrr1d3yQghoxZNnAr4cIYjjO4YwzVREZtXN3+MyG/BE8i+xcnu1eXrMcKMxCzvS0IxJyfvYdzs19hag5ug92Xl9sXckfKKvNwOY9L3YbqtvLGPg+/IxKYsMPyfQuBFallitC3Ux+OPsn27LDX53Lfrqj+hfpG9dltxMQlENMycRgj83pr0uRcHpNzORRLOXWoJgEEEoDh8IMEYtRC0bGAfDyAGAJlGHyRPCUQE3vmhl6UVwfEPINDY9twau4EcnM5jJT6UVjo886IoXNihr1+xMkdYRz4BkD2PGwUrTCdyPfQGjfaBpj4sN7Y+VqZQRc05Cy9xcjt1nktZKikDktu0rGUXYYD+q+krVqWSSF3GiCGAP5AP+12atmHauuyZJNjZYcDfaq23ajyljwrdC7FATGXL66UrUkMOBhAwgVwOM+bCQAIDtDF9bwsEMPyEI+XySVnJWmyHROWctjhBw/END+5rB4xYWNEGhzxYRtcSBuvpu0UZR8aEMMgDHOpnxTyLysQc+8bCMSQYSsN/TRhh1HsMvZjDNVERq2rzlBahDFPAIqzf3Gyx9TlATIuIIYAmAyIsYCK0Di59B6j79DYOcrHzS+v/ZUIxEyvICDGX4TbC9lSARkQIzxivMMNg8YoL9D1gnxZgJilfowt6QN7NaCUATH+nA0YWw6j6FF8Lt9DS/4MiOH3rRrumCdS5zIc0H81bdaibAq5FRDTIm5NijkjJgNiqtwqZI2LnD922J9PtZgPyetY+UCMBBjiQY8MiHHoygU0VZ3m9oipAohpw4amMecZMQSw6F8+qwEEJLBQSbiatqspW05WBk6Iy7yuNuVzV5jrsp+56nrwaWSwk0fM+v1n8N6ZKxiZvQe6wnuazhMq3VKHitJ2IporpAveKsRc6kf+ks5bkFxc5uOwrEeGuR2byzwyzPXFc88IDhm8laQ7jGQyhOMM5STPyhrzQlbLc0VtdynbN1turz5XXQKIeaauFW+3TaNn8g6mZ79WnjDnZ+/g3Bwd2AvjFROSX8hbVra4vLbcXjyJTmWeEFih3z3bS0TGJSgdBLoiZArpgPOJ/rn0XVY/XE8cd39LZH/scK36Rx4xB04dxs8+XAX2iDm7VAR5xLiBmAKGFzTFesPQ4s5f0JlFoNvrQ3qAmLBdXi/UJPDiDstypj25DYjD9iJRy8kLQrs9/kXa1e+yaWW3JiXziJF9Y7CFtyUFeEmfG8N5NNf9qxSIOXmebk0Ke8QU5/swsRgEYoJymvHP0h8PXRjwM/wOEhCz07u+unO6zPXVD9MjJtIAlWNkfyMeVFzK4IVteTke+M4+KPmi2kkidxHjJU1dU0EgRh2qXiJPTOv66jJbXt3flSgZlzvd0gGPk4s/sLGrRKbl1lOw/uD/3THouP4/Rh4xTavp+uo16vpqujXp7pC+vrpmtyYJj5KH7+nhecxkMiEe1IoAYp74Pj7btV8ewxsZDh7W+7MWbGgewcfTN9VhvcVZc1gvAzFy8Z0+bIMLaeNuYyG9HGnrSSsn53e1w8/SclddDz6NDMr9XWN4KQaIIVCDwY4kgAiDIAzgcDyKc90ubrfHcVdeTotqR6cLI7iswZs0r8MglkZ/JeFII57asuSqyJinOqTcXp2uury0vpkbePZnrdjVOo2eqVuYnr2vAJgAEFPS4KWzblvuiuNSbi+cVsdVAjH6+ynHwSFTQL/8XJa55z6PJ5FeuL4wj/t+2uCLjNvlgvMs3E5wjM3zaCBmBNOzeb0g9owlZcDHnCPCQIXPA4tMXggGF18GKDEADKUxcBBenIUNP9soDC7KuV4GXzQfdxqAWsZgm8H2uG9lgRdbTymBGAOgsN5c3DukV5wR44MxMUAM66dcH7ivzAmIeaUpGoihK6wLi0P+2HE7GXeN3aObpt+P4Hsh30F6t3adqMObJ9chA2L4W5aWO+aHy5CntMB3Nm07tc6fRG43EDN47ZS6oW/cA2Jono3OFxXxN0jxQH8d7fnPa923pPVZMkWN2wMdu0pkStrf2uQL/t8NAjGzFwQQc/AIbg1kQIz75qLl3Aa0EsGhGgMxf76hCW82jOCTqZsozn2N4uxt/9akKdqu4215kYvxVOG5sIdEEkOZDWZuPyln2ZLmj85ngAUjS5K0MFDC/U3NxdXd3C/m0XKH20+Sl+t1ceo/AzH1p8kj5ivlETNZuu17xOgbf5Lox+SRRlo6HZs6qFyUXiuvszIdxutZy6wNV2OQSh1UGnb30+qD3HrH4UTb2aSuRZ2iDmmM983cwioBxEzO3QfNKQnEKK+YgBcZtSHqrknYyF2pXqmcSy7XO8JprvwmzcjkHjN+bumCdS15Ih1xfS5utSHq4764uOmLq7yrHXcaAzEbTqxCS/EgRhb6MH21gMm5EUXFOWsB5y9y3em8mJLGAaWZuF60Ba9adi/kuK60XLcl6vS266hfW70wAR1805DhvPiL56Yvsl9JwmGZFCAkZDIADMsXJwvnGfEP61VAjAfChHWcRMZgHqn7T8514SeNz+Ddka3omf0Aw7MDGJvrV+cITSwMobA4rMitWyOr7GMWFnPiAd9SUqnuaU7QdyGKaE7v+bAOm0+sRdf0URSuDat3bXJ+GEQ0T8YWR9VZQi4ZzPto5kyaNFNncC6r9zaxUSzLViZHGpmDeaPeeQ1+BUCJGhnzwfYr7W+83BKs4/DxySa8fOyHODS4EUNXP8b4Qg7jpQH1AwDNMwaL0wEwPHb63aq2b2Y+JXlXuW3BE8+5JPVXkkfIwv+/l1GmyvQdNXcofQSzF0bQtHqt8ohZOHQEt/q7cSvfH6Cbw/24OeQ+gPaO2ALjOhdFPvfDkd4oZluSn1fUv6xpmUyWh0yNgZhnXmvC9voR9EzcRnEOCoiZmr+lwJip+RugMAEyrkV5orSHCMQkks8Bdmhjw21AxBtQVCZsoEQBBWXTHbJV2qdqylGfD3QU8PK+MyAgJj9XGyCmvC6TjUGUHiuvPzyGrnFNl6b7QqBFunJJ8rv0ZJWTRjyHHXM1KJur3nAaAx3k3cRAzO4W7RFjAzHnZqG2J9GYBcfHkresbOXyy/rL5U33PO5dCurPrlfKFBe2yvF4SZ5IPynaEPUtf/++ggFiVqOluB/5pVOYvkYH9eYxOVtAYW4K43PnMF6aEmCKXthJIz15OM0iXy7OIso5vEHGGdiI4p7BG14wyvaShMMyqUV7VLsi3fdcYflLIygKMrIF5WDjV+s73L4pp58FjQjHgpwX5vPBdlzjeXqmAxuOPoVjQ5sxcLkTY1d6MHFlUM2TifkJjC1MYGxxXHnE2HLIOMkk41n40dMHz0MXJ2N6z4cbsfXEahyfPoLitUEFFE6WJjBZmkRhfhKji5PKyHaBmq65lybNVaefltgADb4radpfvrxJgJig3H6/xXvuSls+mem7YryninMFSDpRbMKr9T/AkYHXMXL1OAoLPZiYIyCG3ongOVMuuZOkVdu3JG3E5qlwzsXWWWY8y5ZdRpnK6dv+Zpj8Zp6YOaP/L12+MBYCYq6P9OPTMU0UvpPvV0b6vcE+ZPRN0UEP7g0G6cKh/WiudGvS6lcbsPu9PPo8IKYwe1cBLxqAISCGiDxj4hb1aZ7xeSiah87JcLrqJ/MgsGWMMtDLpdv1UDwkp2ubg0N2V13aeySoh2BaMn2W60fS524ZjQzUdwXE7O1B/ek55Oegt7GVvLlCc4PO/iCdWDqQdfMzmRYX5vxRPK6sfBZVPn26tWUkcntIuflqGdrCCI435MPlknnYVCG3PaaueV8CJuaBwgLQM3NHecQoIGbyjvKyoz6dm9NnxBAQo8EYPb/ix6AKuQPzMKy3tHpOmz++X+XmBz9P2n/Kx2Wq4cn0VIu2CIjZd/owfnpiNZon9yJ/9UNMfkYL4ZxaMBdmz2J07hJGS2f1rR1iAWgWUOWN+OrzOn4JFMCGDb6w9wvxIBjB9ZQ3WFhmXtRy3PCwAW3LERW3wQcFwji8DExbQQ8ETmfZ4rh/JozYHuXKz3VG8e6ZDtTVP4Wm3GbkL7Vj4vIZTFwewuSVKUyUpjG2MKnAGGrPrXPWfVhvtj6y+ErXUfQ7HwJiPu3XHjGlSUyUZjA2P4PhxWkML9C2k0KAQt4ewog3xlnYYHOVs+uuNO6qO04WfuYqZ6dx3jhul6F4pX2xy7nqjpOFn7nKudI4P3MJwlD4o4kmvPHeD/Dz/tcxutSFwuJpDcTM6S1X9C2hG/pc3zBnWpn5xHKU43ZfbL09jLgtU6Xx5ZTdJZOta3sO8HM+NyjIC2rdQUBMw5q1GPiLNWCPmM/H+rEw0Y+lQj8IiLk71K8AmPsDfShHGVDzOAE1biDm2u4KzohZ9WoDdv48rzxiCmRgz973Dl2Vi/KEQESEkVYOxCAjrlpytREEN+KAj+Azu65KZbPrqXW80v7Z5ZLItb9zCi/t68N7p+cxNAeMzX+twBgFBIhxd+mK66dnHK6E23UnrcMuV3F84Su4DhYOpZWbz97BxjUxaEmmBO2FZHT1pVw9Uc9LQGEeGFNAzD2s2tiO3S36+upC6Wv1PVFeFuQdRx4xsx5o582bSPldMrrSouTi9BrqO+mYRfaJZUrCXX2NSktSX7k8CfVUi74Vlm5h7+l38frJtWic2ovBT4+j+HkfCgsD+hfJ+SKG589ilDxi4n5FW+5nHgBkFt989oubDy+OgMicQeNYzFuLdnuByv3ldI77XIBSGtjQQINpU7ZvwgakMGCQBj/CBiYvUm3uy5DAKOPDlZlzfySX9XHYbvP0zHFsrH8OjbltyF16H4XLfRi/Mozi7FkU5qe1l8PiRCKjyQUEZWlmPqx4XcS87wR+7vlwE7Z+uA7Hp46ieE2fG0RgXaE0g9GFaQwtTSO/UPQP/o6amzwXk3A5nynMdVbD7TopnkQWzuMqL9M4Xzkuy3C4mn5xWa6LeTk55HMuE8VlXg7b35QTEy147b2/xJG+OowsnURhoQ90Rgzlo3rzi2OKCIwpT8Exd8nFcpTjrrKss4fFXTJVkrac8tvyuPRszwGdx5wbxECMPh+ooP6fXLw4hmNr16LfA2Ju93WDtiIRGENE25S+HtRATABkGRjAvQDlcG9A3uiThd1nzax0vURvDzt/6CCan/gzXNt9MPKAXvkgcFivDcSMz36tDLukRm41+VwLevpVPSm5ylcjD5V11ZlUHsrnKl+tTA+7/EQJ2Nt5Fi/tzeHImUUMzgHDCxqM8ftLuhOeEVJnfh5hCKbtk6uOLM0935ZNLzzGFicQhoGY7hlg1cZOD4i5hzFvTugtWfrGJPKeinrXlk12MfeyNh7wvHHofmzpFnafeQ+vfbQWR8/uRf9nx1H4ogejS30gbw5a/GqDSf967VpYPYg0f4Hn/TrqL8o9wIWBlxB3/aJaBoDx23LkC/VVgDFJQSLOFzC2E/7yT4tYloHlrHRhzeUl57qZy0Xz6bMfYkP98ziW24n+yycwdjmH8cujPhAzvDSJ4aUJZQBzHzPuAADT/MK/0vJ67wTPDxcnIHLXh1uw9YOX0TXVoM6IoblOYB15wxAIk7s6idxiEfnFoPFMc1nORw672uE0zsO80vchrhzXLTm37+IyX7mwqzynucrGyVnpM7sdbt/F7bzl4nYd8pvy4UQHXn3vWfCSC3wAAAgBSURBVLzb9xZGFk+hMJ/D+NwICnMapMstFZBbSgrGhOcS6cMlny2TjNv5K9XpN7WcrT+KS/2Gw0EQhg9olkDMhUsjqH9hLXp/pD1i7vd2q61I6lyYYe0Ng4F+5QmjgBgffNHAC4Ev9wbyiu4M5JHRY6CDQQkWmUOKzx86jKYnKwRinnntKH667xSOfHgWrb1X0NxzGW09VxR19FwBEceXg1Obkpr7riApyXIUrpV8dr1J5aF8dtlayfQw62ntncPGI8N4ZnsP3myewns9JdSfuYCm3oto7j2v5kzrmRKae2bR3HNRpdMzJkqT1NpzEWlJls/CQX0unz4uq7Glb4IhGmNB3SU0d5fQ1FNCQ28J73w8h6c3vI83Do3gnZOX0dhzCU3dF9B65ixaz5xD+6lLaD19BS1nLqGF5lB3Rt9EHTT2FbHx/b1Yf/xZvD24AU3TB9BefAcdo0fQMXIUraMNaB5rQutoE9pGmtAx0vBQqG30KGxqHfs5kpBdTscb0DaanoL9P6p0RHpiahv9OZIQ55e8c7gBSUjKwH2gcUpLXJa5rJfDUp6jA7vwWuNfYNepl9EyvAedQ0fQNXQMH4y0oGusCe2Fo2idOIq28Xq0jx3L6DHWQedoI6Kofaweb3a+hNe7nsKhgU14v3hMvR9dYy3oGGtBa6EJTZNH0TxxDG3jYbLnTufoMcSRnZ/irnqrSbPbiJOHntn54+Jp66qmH66yLtnSyuSqg9Jc9XSNHAPTu33b8eOjP8RbJ9ajbfwAOobfRefwURwfbUHHeANaikcV0XeFvi/x1ID2QpCoDpu6xhoQR3Z+itv1ZvFondj6i9O1ftak/n/Q/xCmjvEmSDqda8KeZ/8M7d/9HnI/+StMHdiJiUM7UTiyBxPv7sH04X04d3AfZg7siSF6ntHjooPpg/ugaQ+mDxrqf/0naHzie1jYtUs6vkSGAx4xL2zrwgvb2vHitk68uL1dE4W3deLH27vw423H8dL243hpR9ey0Is7umDTure7UI7sMhSvlYyuusvJQ89d5Wol08Os58Udx/Hs1hP4s02n8aPNJ/Hs9uN4alMj1mxrwQvbm7H+rXasf+u44i9sbwXRWo84Lvn6ba2ohGQdWVjredn1sK1dfR/oG6GJvhcWvXUca7cdx+rtx/H8Wx/i6U2f4C9/9hFWbf0Aq7a04PnNx7BuC1EjXtzUqmjdlma8sKUZa7Zm9E3Uwert72JN/SY81/kUXmh7ChvfX4/Xm1ZjY9ML2Nj4EjY0rcfrLevxRvN6bGxcr9PpmU9rsLHpQdDz2NBsUctzeCMBhcqpetZgQ3M6CvfzeWxsCtKGlueQhOxydU3Po65xTWJiWbgPb7SsQRricpJzncxteTa0PIU3Ov8vXmn+Lja1P426hlXY1Pg8trasw+b2Najrek7RzzpWo659bUaPqQ42ta3FptZ1kVTXvho/aftzrG/7Nl5t+QEoXtdMZV5EXds6bOhcjdfffxavdzyPjW1rAvSztjWw6c3WNShHdhmK23VXGnfVXU4eeu4qZ6dVWk+lfbHL2fJQvFKZktS1qWUNJG1sexqvtD6Bl459FxR+o/5p9Q3c2voSNnW8gI1dz/tU17kG5ekF1HUaojokbW5/AUlIlqGwrDMLR+vD1hvFk+hb51mPze0etb2ETe1EP1a0p+HH2PbMn+LQH/4B3vn2H+Kd7/8pDjzxv/DOD7+j6L0ffAf1P/gOjn3/24oan/w2NP0fND6Z0eOoAx5rm9O4H3/6h5jfsz0SfJEPAkDM0TMlHO2eVdTYPQefzsyjqWcBTd1LmihcY2roWYBNx3oXkJTsshSvVkZXnUnloXyu8tXK9LDLU5+2d17GX9VfQF3bJew/NYdDpy+jvvcKGnpnvT4vad5bwrG+IJGnhE3kQZGG7PJZPKzTZdGJ4x1t6KGxNnSs5xqI6nuv4fDpa/jJoSJ++t5Z7Oq6gAMnZnDkk/No6iWvmlk0dy8oYg+aZZHZMd+ydh7QfEmo+/qBGezoa8SG3Gt4e+xNtF05jK4L76B18hDai4fQMnVIecm0TB1A6+QBtE/us2gP2ieXn1qndkFSy9m3kYZkWRPeg9apdBTo69QutAtqnX4baUiWpXBHcU8iYhlY9pbpPaiEuLzkXDdzKVPjxJvY2bcKO/ueRfPUJnRO7MT7k7txYmY/PriwDx2X30bH5V3ouLgbXef3Z/QY6+D4uYOIoq7ze7Fn6CVs6XsaB0ZeVe9E18wBEHWeO4CWi7vQdOltNF94Gy3nd6Ht3J4AdczsgU2dZ/cgiuy8dn21iNttUDxKHkp35Y9KS1tPLfpj12HLllYmu7yM23W9P70HTMeKb2J77/PY2b8GzZNb0FZ4G+0Tu9FR3IeW6V1oOPeWoqaZ7cm+99O7VDkqy2S+9+Z/iP3tlXE7P9eTcaPTOF3Y+qO41G9k2FtHmP9H+9Sag9YdH48cwicHX0Nhw8s4u/2nuLB/M87v34qLB7fj4sG3cenA25jbvx1ze9/C/J63sLBb09LuLcjo8dPBwp4tUOSNM40509L+XfjyyEF8emiPxFsiwwEgJjJX9iDTQKaBTAOZBjINZBrINJBpINNApoFMA5kGMg1kGsg0kGmgag1kQEzVKswqyDSQaSDTQKaBTAOZBjINZBrINJBpINNApoFMA5kGMg0k00AGxCTTU5Yr00CmgUwDmQYyDWQayDSQaSDTQKaBTAOZBjINZBrINFC1Bv4/+iFc7QDufvsAAAAASUVORK5CYII=;" vertex="1" parent="1">
          <mxGeometry x="340" y="540" width="874.29" height="60" as="geometry" />
        </mxCell>
        <mxCell id="fTQjIBvMFG_AR24mNK1f-2" value="" style="shape=curlyBracket;whiteSpace=wrap;html=1;rounded=1;labelPosition=left;verticalLabelPosition=middle;align=right;verticalAlign=middle;rotation=-90;" vertex="1" parent="1">
          <mxGeometry x="764" y="190" width="20" height="860" as="geometry" />
        </mxCell>
        <mxCell id="fTQjIBvMFG_AR24mNK1f-4" value="&lt;font style=&quot;font-size: 16px;&quot;&gt;zlbytes，整个内存大小&lt;/font&gt;" style="text;html=1;align=center;verticalAlign=middle;resizable=0;points=[];autosize=1;strokeColor=#d79b00;fillColor=#ffe6cc;" vertex="1" parent="1">
          <mxGeometry x="682.14" y="650" width="190" height="30" as="geometry" />
        </mxCell>
        <mxCell id="fTQjIBvMFG_AR24mNK1f-5" value="" style="endArrow=classic;html=1;rounded=0;entryX=0.766;entryY=-0.071;entryDx=0;entryDy=0;entryPerimeter=0;" edge="1" parent="1">
          <mxGeometry width="50" height="50" relative="1" as="geometry">
            <mxPoint x="1040" y="490" as="sourcePoint" />
            <mxPoint x="1039.99614" y="540" as="targetPoint" />
          </mxGeometry>
        </mxCell>
        <mxCell id="fTQjIBvMFG_AR24mNK1f-6" value="&lt;font style=&quot;font-size: 16px;&quot;&gt;zltail，&lt;br&gt;最后一个节点偏移量&lt;/font&gt;" style="text;html=1;align=center;verticalAlign=middle;resizable=0;points=[];autosize=1;strokeColor=#9673a6;fillColor=#e1d5e7;" vertex="1" parent="1">
          <mxGeometry x="960" y="420" width="170" height="50" as="geometry" />
        </mxCell>
        <mxCell id="fTQjIBvMFG_AR24mNK1f-7" value="" style="shape=curlyBracket;whiteSpace=wrap;html=1;rounded=1;labelPosition=left;verticalLabelPosition=middle;align=right;verticalAlign=middle;rotation=90;" vertex="1" parent="1">
          <mxGeometry x="867" y="300" width="20" height="430" as="geometry" />
        </mxCell>
        <mxCell id="fTQjIBvMFG_AR24mNK1f-8" value="&lt;font style=&quot;font-size: 16px;&quot;&gt;zllen，&lt;br&gt;所有entry数量&lt;br&gt;&lt;/font&gt;" style="text;html=1;align=center;verticalAlign=middle;resizable=0;points=[];autosize=1;strokeColor=#82b366;fillColor=#d5e8d4;" vertex="1" parent="1">
          <mxGeometry x="765" y="440" width="120" height="50" as="geometry" />
        </mxCell>
        <mxCell id="fTQjIBvMFG_AR24mNK1f-9" value="" style="endArrow=classic;html=1;rounded=0;entryX=0.766;entryY=-0.071;entryDx=0;entryDy=0;entryPerimeter=0;" edge="1" parent="1">
          <mxGeometry width="50" height="50" relative="1" as="geometry">
            <mxPoint x="1180" y="490" as="sourcePoint" />
            <mxPoint x="1179.99614" y="540" as="targetPoint" />
          </mxGeometry>
        </mxCell>
        <mxCell id="fTQjIBvMFG_AR24mNK1f-10" value="&lt;font style=&quot;font-size: 16px;&quot;&gt;zlend，&lt;br&gt;终止字节&lt;br&gt;&lt;/font&gt;" style="text;html=1;align=center;verticalAlign=middle;resizable=0;points=[];autosize=1;strokeColor=#b85450;fillColor=#f8cecc;" vertex="1" parent="1">
          <mxGeometry x="1155" y="420" width="90" height="50" as="geometry" />
        </mxCell>
      </root>
    </mxGraphModel>
  </diagram>
</mxfile>
